<mxfile host="Electron" agent="Mozilla/5.0 (Macintosh; Intel Mac OS X 10_15_7) AppleWebKit/537.36 (KHTML, like Gecko) draw.io/26.0.4 Chrome/128.0.6613.186 Electron/32.2.5 Safari/537.36" version="26.0.4">
  <diagram name="Page-1" id="3eFiruGAm1zjNZH-HeAM">
    <mxGraphModel dx="902" dy="674" grid="1" gridSize="10" guides="1" tooltips="1" connect="1" arrows="1" fold="1" page="1" pageScale="1" pageWidth="827" pageHeight="1169" math="0" shadow="0">
      <root>
        <mxCell id="0" />
        <mxCell id="1" parent="0" />
        <mxCell id="iqprVtGjsiEywVP_pwhM-1" value="" style="group" vertex="1" connectable="0" parent="1">
          <mxGeometry x="40" y="40" width="290" height="500" as="geometry" />
        </mxCell>
        <mxCell id="Ln4_qjFezgvtbFoJ6TMg-3" value="&lt;font style=&quot;font-size: 16px;&quot;&gt;A2A &lt;br style=&quot;font-size: 16px;&quot;&gt;Integration&lt;/font&gt;" style="rounded=0;whiteSpace=wrap;html=1;fontColor=#FFFFFF;fillColor=#4FB81C;strokeColor=#4FB81C;fontSize=16;shadow=1;" parent="iqprVtGjsiEywVP_pwhM-1" vertex="1">
          <mxGeometry width="290" height="60" as="geometry" />
        </mxCell>
        <mxCell id="Ln4_qjFezgvtbFoJ6TMg-6" value="&lt;div style=&quot;font-size: 16px;&quot;&gt;&lt;font color=&quot;#000000&quot; style=&quot;font-size: 16px;&quot;&gt;Chaining of business process steps between business applications by the exchange of transactional data.&lt;/font&gt;&lt;/div&gt;&lt;div style=&quot;font-size: 16px;&quot;&gt;&lt;br style=&quot;font-size: 16px;&quot;&gt;&lt;/div&gt;" style="rounded=0;whiteSpace=wrap;html=1;fontColor=#FFFFFF;fillColor=#FFFFFF;strokeColor=#4FB81C;fontSize=16;shadow=1;align=center;verticalAlign=top;" parent="iqprVtGjsiEywVP_pwhM-1" vertex="1">
          <mxGeometry y="60" width="290" height="320" as="geometry" />
        </mxCell>
        <mxCell id="Ln4_qjFezgvtbFoJ6TMg-7" value="" style="group" parent="iqprVtGjsiEywVP_pwhM-1" vertex="1" connectable="0">
          <mxGeometry x="10" y="210" width="110" height="100" as="geometry" />
        </mxCell>
        <mxCell id="Ln4_qjFezgvtbFoJ6TMg-8" value="" style="rounded=0;whiteSpace=wrap;html=1;" parent="Ln4_qjFezgvtbFoJ6TMg-7" vertex="1">
          <mxGeometry y="30" width="110" height="60" as="geometry" />
        </mxCell>
        <mxCell id="Ln4_qjFezgvtbFoJ6TMg-9" value="Application" style="rounded=0;whiteSpace=wrap;html=1;fillColor=#000000;fontColor=#FFFFFF;fontSize=16;" parent="Ln4_qjFezgvtbFoJ6TMg-7" vertex="1">
          <mxGeometry width="110" height="30" as="geometry" />
        </mxCell>
        <mxCell id="Ln4_qjFezgvtbFoJ6TMg-10" value="" style="rounded=0;whiteSpace=wrap;html=1;fillColor=#595959;fontColor=#FFFFFF;align=left;verticalAlign=top;" parent="Ln4_qjFezgvtbFoJ6TMg-7" vertex="1">
          <mxGeometry x="10" y="40" width="90" height="40" as="geometry" />
        </mxCell>
        <mxCell id="Ln4_qjFezgvtbFoJ6TMg-11" value="" style="shape=image;verticalLabelPosition=bottom;labelBackgroundColor=default;verticalAlign=top;aspect=fixed;imageAspect=0;image=data:image/png,iVBORw0KGgoAAAANSUhEUgAAAVkAAAFZCAYAAAAy8lzbAAAAAXNSR0IArs4c6QAAAIRlWElmTU0AKgAAAAgABQESAAMAAAABAAEAAAEaAAUAAAABAAAASgEbAAUAAAABAAAAUgEoAAMAAAABAAIAAIdpAAQAAAABAAAAWgAAAAAAAADcAAAAAQAAANwAAAABAAOgAQADAAAAAQABAACgAgAEAAAAAQAAAVmgAwAEAAAAAQAAAVkAAAAAwupN1QAAAAlwSFlzAAAh1QAAIdUBBJy0nQAAEK9JREFUeAHt3UusJFUZB/DqvnceMC8QDAFnYWJAERCDxmBEAzJG4kYWYEhUlpgoGhNYuJM9MTFBUGOEwEJAI4iJCx6jGzUhKBvUIJiYyAQl8hxmGO70y/+5cOdxc53pvpnqW9X9q8m5VV1dVec7v9Pn6+rqnu6qMhEgQIAAAQIECBAgQIAAAQIECBAgQIAAAQIECBAgQIAAAQIECBAgQIAAAQIECBAgQIAAAQIECBAgQIAAAQIECBAgQIAAAQIECBAgQIAAAQIECBAgQIAAAQIECBAgQIAAAQIECBAgQIAAAQIECBAgQIAAAQIECBAgQIAAAQIECBAgQIAAAQIECBAgQIAAAQIECBAgQIAAAQIECBAgQIAAAQIECBAgQIAAAQIECBAgQIAAAQIECBAgQIAAAQIECBAgQIAAAQIECBAgQIAAAQIECBAgQIAAAQIECBAgQIAAAQIECBAgQIAAAQIECBAgQIAAAQIECBAgQIAAAQIECBAgQIAAAQIECBAgQIAAAQIECBAgQIAAAQIECBAgQIAAAQIECBAgQIAAAQIECBAgQIAAAQIECBAgQIAAAQIECBAgQIAAAQIECBAgQIAAAQIECBAgQIAAAQIECBAgQIAAAQIECBAgQIAAAQIECBAgQIAAAQIECBAgQIAAAQIECBAgQIAAAQIECBAgQIAAAQIECBAgQIAAAQIECBAgQIAAAQIECBAgQIAAAQIECBAgQIAAAQIECBAgQIAAAQIECBAgQIAAAQIECBAgQIAAAQIECBAgQIAAAQIECBAgQIAAAQIECBAgQIAAAQIECBAgQIAAAQIECBAgQIAAAQIECBAgQIAAAQIECBAgQIAAAQIECBAgQIAAAQIECBAgQIAAAQIECBAgQIAAAQIECBAgQIAAAQIECBAgQIAAAQIECBAgQIAAAQIECBAgQIAAAQIECBAgQIAAAQIECBAgQIAAAQIECBAgQIAAAQIECBAgQIAAAQIECBAgQIAAAQIECBAgQIAAAQIECBAgQIAAAQIECBAgQIAAAQIECBAgQIAAAQIECBAgQIAAAQIECBAgQIAAAQIECBAgQIAAAQIECBAgQIAAAQIECBAgQIAAAQIECBAgQIAAAQIECBAgQIAAAQIECBAgQIAAAQIECBAgQIAAAQIECBAgQIAAAQIECBAgQIAAAQIECBAgQIAAAQIECBAgQIAAAQIECBAgQIAAAQIECBAgQIAAAQIECBAgQIAAAQIECBAgQIAAAQIECBAgQIAAAQIECBAgQIAAAQIECBAgQIAAAQKNERiNRp3GBDPlQOa57VOmnrnqGjlorv95tfD2jvM+WVWdizqdznBS9fcMe9VHB29Xg2ph0l2rrdnr4v5SZzDhniXI07PvJb1e1Ztw32pUdXsL1YF/VluevPy6pecn3X2a2yfZXJD69qQsTbPeDaxrS+rem8fh3zcwhpNWnX45Nxt9OmVXysRj5qQVNG+Dbr/ff25xcfEP6Zt+88I7GtHi0cUGLe3evbnzWvW1rWcvfGXUH40dWNmyPGtsHS5U2/sL1WDCp5Cy/2mjbrUrXdZfPtLYVSdPVtX27Lt90uxcquhW1cv7O4c61fBbudXoJJv4rk65M2WeppvT2EYn2cR3ScpdKWelzMW0sLDwUBr6pxRJduIe35dkua1zsPfmsBpOkGRLPSWvLo2G1VvZb9J8VxLlcDSq9g/Wv++BVDppvYtJspleT45uw9lhG2JcBj2Ff9rQ5vIC6vWUuUmyOXs/mLPYMmwbPb0zvBsdouAIECDQXgFJtr19J3ICBFog0Mxrsi2AE+JRgbxsq/KybX/mb2Q+4ZXwo8fZyKXEXl52ljeNdra0CWvypVmvpD2H1ryzJStL36QN70u4rTwplGRb8kBrcpgZAGUc/Dbz+xLn6U2O9f/FltjfGgwGX82bKddmm1Y+UazVtvTLfcPh8M/lvrRtrU0avy7xv53Y706gOxsf7BoBzmaSbfyl8DV6ouWrMpif7na7D7e5Gb1e76K049ok3DY347jY0yePpj2PHreyhTfSL+UTLa1Msq08/T7RY6Tk197yIJFpT+RUw32bazjmVA+ZhLRpqhVOp7Kt06mm9lpa+8w3k0l2qdOdndd7tT92VUCAQJ0CM5dkC1bzPzlXZ5c6NgECTRKYySTbJGCxECAw3wKS7Hz3v9YTIFCzgCRbM7DDEyAw3wKS7Hz3v9YTIFCzgCRbM7DDEyAw3wKS7Hz3v9YTIFCzgCRbM7DDEyAw3wKS7Hz3v9YTIFCzgCRbM7DDEyAw3wKS7Hz3v9YTIFCzgCRbM7DDEyAw3wKS7Hz3v9YTIFCzgCRbM3CbDp/v7Gzt18m1yXmcWNMXs/IVheM0d6a3kWRnuntP3rgM5o/kFwG+m/ml+XLn5S/hzbJke3K6urc4O/1wc75IfE/dFTl+vQKSbL2+jT96EuyH82XVtyXQOzOob0w5ZyXZNj742Q6wnMnekp9duSuJ9valpaUPzXZzZ7d1kmxj+jYnkaPhRvycw9vvEnwq85+k3JFEe12Kx8bRx8bw6OLUlnqp6b95wjt/cXHx1k2bNt2RJ8Rb0y9nTS0CFZ0Sgdn8ja9TQjPtg+QVeqebP4MNqPhIleUnZK5P+Wx+vO4zOYN6JIN7b7k3gzvjfW6/Dn172l/GyvZiMYWpnzrOTDnyczix31NK1n0ssTyU+UO5PfUHS+o1TSggyU4IVsfmw5wndTbt3HHu+d++YTS67ZLUMa1+6WfArn4ZWs6mz8olhG9mEH8+99+V249n+W91tL0lx/xS4rw45UjSqznucuZcfjRw9xr13JB1V+VJcE/65t70yx+P2ca19GMwmrI4rcHclPY2Mo5ykaCzsG37zjMu/EICLGVqUwbp6rqOrMh9F+TO76f8rt/v35Prgw9kef/qHWb8dnnSKZdSSmnCVOI5J0+CN2X+8VxC2Jvl72W5XPZxZhuEpk2SbEN6ZFQNR73+4TJImtgnVyXBXp6zp2uSeM9cIzE3RLGWMI486dRy9MkPuhJPSbaXJcFelvml6Zt/ZXnX5IezR90C3tyoW3h2jn9akuv7U8r1QlOzBFYSb7OiEs2ygCTbmAdCp7PQXWzSWWw5U1qZ/pGF7yTBfjnze1ZWzsn8WIcmNHklnpJYn84Z7O0HDx68MWexd+f2G00IUAzHCzRpUB8f2RzdWr4sOlw6tHTwxb+k2S+kLEyp+YO8ebI7yfMTa9RXBvFrGcQPpDycTxk8XrbJ9levse0sryoO5c2lv6ZM842vXbG+Mn2z+iNbJZ6XUh5JuTeXcZbf+Mq2F+b2tB43qco0roAkO65Ujdt183pi1Nv/5qsv/Oz+cz94y/2p6rQaqzv20IcyiL+YFauTbLkk8OuUB3OG9KsM5MPH7LRyJnXMqplffDAt/GHKtD7ClU/P9c7PE9sHUufqJPtA3ux6OH3yy/Td6je65rFvGv/gk2Qb0EXl1KQa9fv7X376pQyc/0wzpHxq4N8ZsEeqzBnRU4nhrqx4LPMXj9wx3wsHYtELwWvTYkg/vJq6Sp0r0xN5RfFonvTuyX9OeGVlpXnzBSTZxvRRp9PdvJhsd+y4mkpwW96tZV/mP0rSfWzz5s1PlXUZ6Mktc/sfEN5lWZ5txHsX5dLEe1OeT3J9JP3y0y1btjx7bFCW2yEgybajn2qLMmexL2QQ35szpF8kof6mVLSSXCXY2tjHOXD53Gv5/Ouz6aMnxtnBNs0UkGSb2S/TjOqZJNjyv7veXKlUcl2R2ND5y+mHH2xoBCo/JQKS7ClhbO9BMpAPtjf62Y08/VLOZE0zILAR15pmgE0TCBAgMJ6AJDuek60IECCwLgFJdl1sdiJAgMB4ApLseE62IkCAwLoEJNl1sdmJAAEC4wlIsuM52YoAAQLrEpBk18VmJwIECIwnIMmO52QrAgQIrEtAkl0Xm50IECAwnoAkO56TrQgQILAuAUl2XWx2IkCAwHgCkux4TrYiQIDAugQk2XWx2YkAAQLjCUiy4znZigABAusSkGTXxWanNQRm4av5ZqENq7tmVr7Kcri6YW257ftk29JTDY8zv6ZwTX78L9//3V35OZuGR3x8ePl1iKW04XOJ//g7Wn4rbbop/XJlaUaL21Z+yHNHaUMbJ0m2jb3WvJg7GcBX5Iumr2heaONFVBJQEtJySTvG26kFW6Ut1+eHF1sQ6eyGSH92+3aqLZuFxDQLbZhqp6tsLIHZem00VpNtRIAAgekJSLLTs1YTAQJzKNDMywW787PUr422bdqxUI36o4m6pWy9OdfWTu91q/6El9bKvqflz87s2K8m27nsu33UqbYPJgr3nY3zVHdof3VGZ1i14U2jNsS4jk444S5taPOmtOCME7Zixu7M5Z1tadJkA3UDDJqZZPftOzzacd6Pl14d/X7USeqZcOpWg+rA4UF2XJhwz6oa5t8bSZSDqqTN8acSZC/7HuiV+YTTqOoOF0YHMntywj03YvO9qfQbKUsbUfkG1FkSbGlz06dnEuDXU3alTDxmmt64NeLrDgaD5/Km3rw8DtcgsGrmBPLue+PPGupCn+e212XquAQIECBAgAABAgQIECBAgAABAgQIECBAgAABAgQIECBAgAABAgQIECBAgAABAgQIECBAgAABAgQIECBAgAABAgQIECBAgAABAgQIECBAgAABAgQIECBAgAABAgQIECBAgAABAgQIECBAgAABAgQIECBAgAABAgQIECBAgAABAgQIECBAgAABAgQIECBAgAABAgQIECBAgAABAgQIECBAgAABAgQIECBAgAABAgQIECBAgAABAgQIECBAgAABAgQIECBAgAABAgQIECBAgAABAgQIECBAgAABAgQIECBAgAABAgQIECBAgAABAgQIECBAgAABAgQIECBAgAABAgQIECBAgAABAgQIECBAgAABAgQIECBAgAABAgQIECBAgAABAgQIECBAgAABAgQIECBAgAABAgQIECBAgAABAgQIECBAgAABAgQIECBAgAABAgQIECBAgAABAgQIECBAgAABAgQIECBAgAABAgQIECBAgAABAgQIECBAgAABAgQIECBAgAABAgQIECBAgAABAgQIECBAgAABAgQIECBAgAABAgQIECBAgAABAgQIECBAgAABAgQIECBAgAABAgQIECBAgAABAgQIECBAgAABAgQIECBAgAABAgQIECBAgAABAgQIECBAgAABAgQIECBAgAABAgQIECBAgAABAgQIECBAgAABAgQIECBAgAABAgQIECBAgAABAgQIECBAgAABAgQIECBAgAABAgQIECBAgAABAgQIECBAgAABAgQIECBAgAABAgQIECBAgAABAgQIECBAgAABAgQIECBAgAABAgQIECBAgAABAgQIECBAgAABAgQIECBAgAABAgQIECBAgAABAgQIECBAgAABAgQIECBAgAABAgQIECBAgAABAgQIECBAgAABAgQIECBAgAABAgQIECBAgAABAgQIECBAgAABAgQIECBAgAABAgQIECBAgAABAgQIECBAgAABAgQIECBAgAABAgQIECBAgAABAgQIECBAgAABAgQIECBAgAABAgQIECBAgAABAgQIECBAgAABAgQIECBAgAABAgQIECBAgAABAgQIECBAgAABAgQIECBAgAABAgQIECBAgAABAgQIECBAgAABAgQIECBAgAABAgQItEDgf7DcTusL+DmcAAAAAElFTkSuQmCC;" parent="Ln4_qjFezgvtbFoJ6TMg-7" vertex="1">
          <mxGeometry x="15" y="20" width="80" height="80" as="geometry" />
        </mxCell>
        <mxCell id="Ln4_qjFezgvtbFoJ6TMg-12" value="" style="group" parent="iqprVtGjsiEywVP_pwhM-1" vertex="1" connectable="0">
          <mxGeometry x="170" y="210" width="110" height="100" as="geometry" />
        </mxCell>
        <mxCell id="Ln4_qjFezgvtbFoJ6TMg-13" value="" style="rounded=0;whiteSpace=wrap;html=1;" parent="Ln4_qjFezgvtbFoJ6TMg-12" vertex="1">
          <mxGeometry y="30" width="110" height="60" as="geometry" />
        </mxCell>
        <mxCell id="Ln4_qjFezgvtbFoJ6TMg-14" value="Application" style="rounded=0;whiteSpace=wrap;html=1;fillColor=#000000;fontColor=#FFFFFF;fontSize=16;" parent="Ln4_qjFezgvtbFoJ6TMg-12" vertex="1">
          <mxGeometry width="110" height="30" as="geometry" />
        </mxCell>
        <mxCell id="Ln4_qjFezgvtbFoJ6TMg-15" value="" style="rounded=0;whiteSpace=wrap;html=1;fillColor=#595959;fontColor=#FFFFFF;align=left;verticalAlign=top;" parent="Ln4_qjFezgvtbFoJ6TMg-12" vertex="1">
          <mxGeometry x="10" y="40" width="90" height="40" as="geometry" />
        </mxCell>
        <mxCell id="Ln4_qjFezgvtbFoJ6TMg-16" value="" style="shape=image;verticalLabelPosition=bottom;labelBackgroundColor=default;verticalAlign=top;aspect=fixed;imageAspect=0;image=data:image/png,iVBORw0KGgoAAAANSUhEUgAAAVkAAAFZCAYAAAAy8lzbAAAAAXNSR0IArs4c6QAAAIRlWElmTU0AKgAAAAgABQESAAMAAAABAAEAAAEaAAUAAAABAAAASgEbAAUAAAABAAAAUgEoAAMAAAABAAIAAIdpAAQAAAABAAAAWgAAAAAAAADcAAAAAQAAANwAAAABAAOgAQADAAAAAQABAACgAgAEAAAAAQAAAVmgAwAEAAAAAQAAAVkAAAAAwupN1QAAAAlwSFlzAAAh1QAAIdUBBJy0nQAAEK9JREFUeAHt3UusJFUZB/DqvnceMC8QDAFnYWJAERCDxmBEAzJG4kYWYEhUlpgoGhNYuJM9MTFBUGOEwEJAI4iJCx6jGzUhKBvUIJiYyAQl8hxmGO70y/+5cOdxc53pvpnqW9X9q8m5VV1dVec7v9Pn6+rqnu6qMhEgQIAAAQIECBAgQIAAAQIECBAgQIAAAQIECBAgQIAAAQIECBAgQIAAAQIECBAgQIAAAQIECBAgQIAAAQIECBAgQIAAAQIECBAgQIAAAQIECBAgQIAAAQIECBAgQIAAAQIECBAgQIAAAQIECBAgQIAAAQIECBAgQIAAAQIECBAgQIAAAQIECBAgQIAAAQIECBAgQIAAAQIECBAgQIAAAQIECBAgQIAAAQIECBAgQIAAAQIECBAgQIAAAQIECBAgQIAAAQIECBAgQIAAAQIECBAgQIAAAQIECBAgQIAAAQIECBAgQIAAAQIECBAgQIAAAQIECBAgQIAAAQIECBAgQIAAAQIECBAgQIAAAQIECBAgQIAAAQIECBAgQIAAAQIECBAgQIAAAQIECBAgQIAAAQIECBAgQIAAAQIECBAgQIAAAQIECBAgQIAAAQIECBAgQIAAAQIECBAgQIAAAQIECBAgQIAAAQIECBAgQIAAAQIECBAgQIAAAQIECBAgQIAAAQIECBAgQIAAAQIECBAgQIAAAQIECBAgQIAAAQIECBAgQIAAAQIECBAgQIAAAQIECBAgQIAAAQIECBAgQIAAAQIECBAgQIAAAQIECBAgQIAAAQIECBAgQIAAAQIECBAgQIAAAQIECBAgQIAAAQIECBAgQIAAAQIECBAgQIAAAQIECBAgQIAAAQIECBAgQIAAAQIECBAgQIAAAQIECBAgQIAAAQIECBAgQIAAAQIECBAgQIAAAQIECBAgQIAAAQIECBAgQIAAAQIECBAgQIAAAQIECBAgQIAAAQIECBAgQIAAAQIECBAgQIAAAQIECBAgQIAAAQIECBAgQIAAAQIECBAgQIAAAQIECBAgQIAAAQIECBAgQIAAAQIECBAgQIAAAQIECBAgQIAAAQIECBAgQIAAAQIECBAgQIAAAQIECBAgQIAAAQIECBAgQIAAAQIECBAgQIAAAQIECBAgQIAAAQIECBAgQIAAAQIECBAgQIAAAQIECBAgQIAAAQIECBAgQIAAAQIECBAgQIAAAQIECBAgQIAAAQIECBAgQIAAAQIECBAgQIAAAQIECBAgQIAAAQIECBAgQIAAAQIECBAgQIAAAQIECBAgQIAAAQKNERiNRp3GBDPlQOa57VOmnrnqGjlorv95tfD2jvM+WVWdizqdznBS9fcMe9VHB29Xg2ph0l2rrdnr4v5SZzDhniXI07PvJb1e1Ztw32pUdXsL1YF/VluevPy6pecn3X2a2yfZXJD69qQsTbPeDaxrS+rem8fh3zcwhpNWnX45Nxt9OmVXysRj5qQVNG+Dbr/ff25xcfEP6Zt+88I7GtHi0cUGLe3evbnzWvW1rWcvfGXUH40dWNmyPGtsHS5U2/sL1WDCp5Cy/2mjbrUrXdZfPtLYVSdPVtX27Lt90uxcquhW1cv7O4c61fBbudXoJJv4rk65M2WeppvT2EYn2cR3ScpdKWelzMW0sLDwUBr6pxRJduIe35dkua1zsPfmsBpOkGRLPSWvLo2G1VvZb9J8VxLlcDSq9g/Wv++BVDppvYtJspleT45uw9lhG2JcBj2Ff9rQ5vIC6vWUuUmyOXs/mLPYMmwbPb0zvBsdouAIECDQXgFJtr19J3ICBFog0Mxrsi2AE+JRgbxsq/KybX/mb2Q+4ZXwo8fZyKXEXl52ljeNdra0CWvypVmvpD2H1ryzJStL36QN70u4rTwplGRb8kBrcpgZAGUc/Dbz+xLn6U2O9f/FltjfGgwGX82bKddmm1Y+UazVtvTLfcPh8M/lvrRtrU0avy7xv53Y706gOxsf7BoBzmaSbfyl8DV6ouWrMpif7na7D7e5Gb1e76K049ok3DY347jY0yePpj2PHreyhTfSL+UTLa1Msq08/T7RY6Tk197yIJFpT+RUw32bazjmVA+ZhLRpqhVOp7Kt06mm9lpa+8w3k0l2qdOdndd7tT92VUCAQJ0CM5dkC1bzPzlXZ5c6NgECTRKYySTbJGCxECAw3wKS7Hz3v9YTIFCzgCRbM7DDEyAw3wKS7Hz3v9YTIFCzgCRbM7DDEyAw3wKS7Hz3v9YTIFCzgCRbM7DDEyAw3wKS7Hz3v9YTIFCzgCRbM7DDEyAw3wKS7Hz3v9YTIFCzgCRbM7DDEyAw3wKS7Hz3v9YTIFCzgCRbM3CbDp/v7Gzt18m1yXmcWNMXs/IVheM0d6a3kWRnuntP3rgM5o/kFwG+m/ml+XLn5S/hzbJke3K6urc4O/1wc75IfE/dFTl+vQKSbL2+jT96EuyH82XVtyXQOzOob0w5ZyXZNj742Q6wnMnekp9duSuJ9valpaUPzXZzZ7d1kmxj+jYnkaPhRvycw9vvEnwq85+k3JFEe12Kx8bRx8bw6OLUlnqp6b95wjt/cXHx1k2bNt2RJ8Rb0y9nTS0CFZ0Sgdn8ja9TQjPtg+QVeqebP4MNqPhIleUnZK5P+Wx+vO4zOYN6JIN7b7k3gzvjfW6/Dn172l/GyvZiMYWpnzrOTDnyczix31NK1n0ssTyU+UO5PfUHS+o1TSggyU4IVsfmw5wndTbt3HHu+d++YTS67ZLUMa1+6WfArn4ZWs6mz8olhG9mEH8+99+V249n+W91tL0lx/xS4rw45UjSqznucuZcfjRw9xr13JB1V+VJcE/65t70yx+P2ca19GMwmrI4rcHclPY2Mo5ykaCzsG37zjMu/EICLGVqUwbp6rqOrMh9F+TO76f8rt/v35Prgw9kef/qHWb8dnnSKZdSSmnCVOI5J0+CN2X+8VxC2Jvl72W5XPZxZhuEpk2SbEN6ZFQNR73+4TJImtgnVyXBXp6zp2uSeM9cIzE3RLGWMI486dRy9MkPuhJPSbaXJcFelvml6Zt/ZXnX5IezR90C3tyoW3h2jn9akuv7U8r1QlOzBFYSb7OiEs2ygCTbmAdCp7PQXWzSWWw5U1qZ/pGF7yTBfjnze1ZWzsn8WIcmNHklnpJYn84Z7O0HDx68MWexd+f2G00IUAzHCzRpUB8f2RzdWr4sOlw6tHTwxb+k2S+kLEyp+YO8ebI7yfMTa9RXBvFrGcQPpDycTxk8XrbJ9levse0sryoO5c2lv6ZM842vXbG+Mn2z+iNbJZ6XUh5JuTeXcZbf+Mq2F+b2tB43qco0roAkO65Ujdt183pi1Nv/5qsv/Oz+cz94y/2p6rQaqzv20IcyiL+YFauTbLkk8OuUB3OG9KsM5MPH7LRyJnXMqplffDAt/GHKtD7ClU/P9c7PE9sHUufqJPtA3ux6OH3yy/Td6je65rFvGv/gk2Qb0EXl1KQa9fv7X376pQyc/0wzpHxq4N8ZsEeqzBnRU4nhrqx4LPMXj9wx3wsHYtELwWvTYkg/vJq6Sp0r0xN5RfFonvTuyX9OeGVlpXnzBSTZxvRRp9PdvJhsd+y4mkpwW96tZV/mP0rSfWzz5s1PlXUZ6Mktc/sfEN5lWZ5txHsX5dLEe1OeT3J9JP3y0y1btjx7bFCW2yEgybajn2qLMmexL2QQ35szpF8kof6mVLSSXCXY2tjHOXD53Gv5/Ouz6aMnxtnBNs0UkGSb2S/TjOqZJNjyv7veXKlUcl2R2ND5y+mHH2xoBCo/JQKS7ClhbO9BMpAPtjf62Y08/VLOZE0zILAR15pmgE0TCBAgMJ6AJDuek60IECCwLgFJdl1sdiJAgMB4ApLseE62IkCAwLoEJNl1sdmJAAEC4wlIsuM52YoAAQLrEpBk18VmJwIECIwnIMmO52QrAgQIrEtAkl0Xm50IECAwnoAkO56TrQgQILAuAUl2XWx2IkCAwHgCkux4TrYiQIDAugQk2XWx2YkAAQLjCUiy4znZigABAusSkGTXxWanNQRm4av5ZqENq7tmVr7Kcri6YW257ftk29JTDY8zv6ZwTX78L9//3V35OZuGR3x8ePl1iKW04XOJ//g7Wn4rbbop/XJlaUaL21Z+yHNHaUMbJ0m2jb3WvJg7GcBX5Iumr2heaONFVBJQEtJySTvG26kFW6Ut1+eHF1sQ6eyGSH92+3aqLZuFxDQLbZhqp6tsLIHZem00VpNtRIAAgekJSLLTs1YTAQJzKNDMywW787PUr422bdqxUI36o4m6pWy9OdfWTu91q/6El9bKvqflz87s2K8m27nsu33UqbYPJgr3nY3zVHdof3VGZ1i14U2jNsS4jk444S5taPOmtOCME7Zixu7M5Z1tadJkA3UDDJqZZPftOzzacd6Pl14d/X7USeqZcOpWg+rA4UF2XJhwz6oa5t8bSZSDqqTN8acSZC/7HuiV+YTTqOoOF0YHMntywj03YvO9qfQbKUsbUfkG1FkSbGlz06dnEuDXU3alTDxmmt64NeLrDgaD5/Km3rw8DtcgsGrmBPLue+PPGupCn+e212XquAQIECBAgAABAgQIECBAgAABAgQIECBAgAABAgQIECBAgAABAgQIECBAgAABAgQIECBAgAABAgQIECBAgAABAgQIECBAgAABAgQIECBAgAABAgQIECBAgAABAgQIECBAgAABAgQIECBAgAABAgQIECBAgAABAgQIECBAgAABAgQIECBAgAABAgQIECBAgAABAgQIECBAgAABAgQIECBAgAABAgQIECBAgAABAgQIECBAgAABAgQIECBAgAABAgQIECBAgAABAgQIECBAgAABAgQIECBAgAABAgQIECBAgAABAgQIECBAgAABAgQIECBAgAABAgQIECBAgAABAgQIECBAgAABAgQIECBAgAABAgQIECBAgAABAgQIECBAgAABAgQIECBAgAABAgQIECBAgAABAgQIECBAgAABAgQIECBAgAABAgQIECBAgAABAgQIECBAgAABAgQIECBAgAABAgQIECBAgAABAgQIECBAgAABAgQIECBAgAABAgQIECBAgAABAgQIECBAgAABAgQIECBAgAABAgQIECBAgAABAgQIECBAgAABAgQIECBAgAABAgQIECBAgAABAgQIECBAgAABAgQIECBAgAABAgQIECBAgAABAgQIECBAgAABAgQIECBAgAABAgQIECBAgAABAgQIECBAgAABAgQIECBAgAABAgQIECBAgAABAgQIECBAgAABAgQIECBAgAABAgQIECBAgAABAgQIECBAgAABAgQIECBAgAABAgQIECBAgAABAgQIECBAgAABAgQIECBAgAABAgQIECBAgAABAgQIECBAgAABAgQIECBAgAABAgQIECBAgAABAgQIECBAgAABAgQIECBAgAABAgQIECBAgAABAgQIECBAgAABAgQIECBAgAABAgQIECBAgAABAgQIECBAgAABAgQIECBAgAABAgQIECBAgAABAgQIECBAgAABAgQIECBAgAABAgQIECBAgAABAgQIECBAgAABAgQIECBAgAABAgQIECBAgAABAgQIECBAgAABAgQIECBAgAABAgQIECBAgAABAgQIECBAgAABAgQIECBAgAABAgQIECBAgAABAgQIECBAgAABAgQIECBAgAABAgQIECBAgAABAgQItEDgf7DcTusL+DmcAAAAAElFTkSuQmCC;" parent="Ln4_qjFezgvtbFoJ6TMg-12" vertex="1">
          <mxGeometry x="15" y="20" width="80" height="80" as="geometry" />
        </mxCell>
        <mxCell id="Ln4_qjFezgvtbFoJ6TMg-17" style="edgeStyle=none;rounded=0;orthogonalLoop=1;jettySize=auto;html=1;exitX=0;exitY=0.25;exitDx=0;exitDy=0;startArrow=oval;startFill=1;endArrow=block;endFill=1;strokeWidth=5;strokeColor=#4fb81c;entryX=1;entryY=0.5;entryDx=0;entryDy=0;" parent="iqprVtGjsiEywVP_pwhM-1" source="Ln4_qjFezgvtbFoJ6TMg-15" edge="1">
          <mxGeometry relative="1" as="geometry">
            <mxPoint x="170" y="259.5" as="sourcePoint" />
            <mxPoint x="110" y="259.5" as="targetPoint" />
          </mxGeometry>
        </mxCell>
        <mxCell id="Ln4_qjFezgvtbFoJ6TMg-18" style="edgeStyle=none;rounded=0;orthogonalLoop=1;jettySize=auto;html=1;exitX=1;exitY=0.75;exitDx=0;exitDy=0;startArrow=oval;startFill=1;endArrow=block;endFill=1;strokeWidth=5;strokeColor=#4fb81c;entryX=0;entryY=0.75;entryDx=0;entryDy=0;" parent="iqprVtGjsiEywVP_pwhM-1" source="Ln4_qjFezgvtbFoJ6TMg-10" target="Ln4_qjFezgvtbFoJ6TMg-15" edge="1">
          <mxGeometry relative="1" as="geometry">
            <mxPoint x="360" y="361" as="sourcePoint" />
            <mxPoint x="150" y="280" as="targetPoint" />
          </mxGeometry>
        </mxCell>
        <mxCell id="Ln4_qjFezgvtbFoJ6TMg-66" value="&lt;div style=&quot;font-size: 14px;&quot;&gt;&lt;u&gt;Example:&lt;/u&gt; Lead-to-cash process with integration of SAP Customer Experience and SAP S/4HANA: exchange of sales orders.&lt;/div&gt;" style="rounded=0;whiteSpace=wrap;html=1;fontColor=#000000;fillColor=#D9EDCB;strokeColor=#D9EDCB;align=left;verticalAlign=top;fontSize=14;" parent="iqprVtGjsiEywVP_pwhM-1" vertex="1">
          <mxGeometry y="400" width="290" height="100" as="geometry" />
        </mxCell>
        <mxCell id="iqprVtGjsiEywVP_pwhM-2" value="" style="group" vertex="1" connectable="0" parent="1">
          <mxGeometry x="360" y="40" width="290" height="500" as="geometry" />
        </mxCell>
        <mxCell id="Ln4_qjFezgvtbFoJ6TMg-1" value="&lt;font style=&quot;font-size: 16px;&quot;&gt;Master Data Integration&lt;/font&gt;" style="rounded=0;whiteSpace=wrap;html=1;fontColor=#FFFFFF;fillColor=#4FB81C;strokeColor=#4FB81C;fontSize=16;shadow=1;" parent="iqprVtGjsiEywVP_pwhM-2" vertex="1">
          <mxGeometry width="290" height="60" as="geometry" />
        </mxCell>
        <mxCell id="Ln4_qjFezgvtbFoJ6TMg-2" value="&lt;div style=&quot;&quot;&gt;&lt;div style=&quot;&quot;&gt;&lt;font color=&quot;#000000&quot;&gt;API-based exchange of master data across business applications.&lt;/font&gt;&lt;/div&gt;&lt;div style=&quot;font-size: 16px;&quot;&gt;&lt;br&gt;&lt;/div&gt;&lt;/div&gt;" style="rounded=0;whiteSpace=wrap;html=1;fontColor=#FFFFFF;fillColor=#FFFFFF;strokeColor=#4FB81C;fontSize=16;shadow=1;align=center;verticalAlign=top;" parent="iqprVtGjsiEywVP_pwhM-2" vertex="1">
          <mxGeometry y="60" width="290" height="320" as="geometry" />
        </mxCell>
        <mxCell id="Ln4_qjFezgvtbFoJ6TMg-19" value="" style="group" parent="iqprVtGjsiEywVP_pwhM-2" vertex="1" connectable="0">
          <mxGeometry x="10" y="210" width="110" height="100" as="geometry" />
        </mxCell>
        <mxCell id="Ln4_qjFezgvtbFoJ6TMg-20" value="" style="rounded=0;whiteSpace=wrap;html=1;" parent="Ln4_qjFezgvtbFoJ6TMg-19" vertex="1">
          <mxGeometry y="30" width="110" height="60" as="geometry" />
        </mxCell>
        <mxCell id="Ln4_qjFezgvtbFoJ6TMg-21" value="Application" style="rounded=0;whiteSpace=wrap;html=1;fillColor=#000000;fontColor=#FFFFFF;fontSize=16;" parent="Ln4_qjFezgvtbFoJ6TMg-19" vertex="1">
          <mxGeometry width="110" height="30" as="geometry" />
        </mxCell>
        <mxCell id="Ln4_qjFezgvtbFoJ6TMg-22" value="" style="rounded=0;whiteSpace=wrap;html=1;fillColor=#595959;fontColor=#FFFFFF;align=left;verticalAlign=top;" parent="Ln4_qjFezgvtbFoJ6TMg-19" vertex="1">
          <mxGeometry x="10" y="40" width="90" height="40" as="geometry" />
        </mxCell>
        <mxCell id="Ln4_qjFezgvtbFoJ6TMg-23" value="" style="shape=image;verticalLabelPosition=bottom;labelBackgroundColor=default;verticalAlign=top;aspect=fixed;imageAspect=0;image=data:image/png,iVBORw0KGgoAAAANSUhEUgAAAVkAAAFZCAYAAAAy8lzbAAAAAXNSR0IArs4c6QAAAIRlWElmTU0AKgAAAAgABQESAAMAAAABAAEAAAEaAAUAAAABAAAASgEbAAUAAAABAAAAUgEoAAMAAAABAAIAAIdpAAQAAAABAAAAWgAAAAAAAADcAAAAAQAAANwAAAABAAOgAQADAAAAAQABAACgAgAEAAAAAQAAAVmgAwAEAAAAAQAAAVkAAAAAwupN1QAAAAlwSFlzAAAh1QAAIdUBBJy0nQAAEK9JREFUeAHt3UusJFUZB/DqvnceMC8QDAFnYWJAERCDxmBEAzJG4kYWYEhUlpgoGhNYuJM9MTFBUGOEwEJAI4iJCx6jGzUhKBvUIJiYyAQl8hxmGO70y/+5cOdxc53pvpnqW9X9q8m5VV1dVec7v9Pn6+rqnu6qMhEgQIAAAQIECBAgQIAAAQIECBAgQIAAAQIECBAgQIAAAQIECBAgQIAAAQIECBAgQIAAAQIECBAgQIAAAQIECBAgQIAAAQIECBAgQIAAAQIECBAgQIAAAQIECBAgQIAAAQIECBAgQIAAAQIECBAgQIAAAQIECBAgQIAAAQIECBAgQIAAAQIECBAgQIAAAQIECBAgQIAAAQIECBAgQIAAAQIECBAgQIAAAQIECBAgQIAAAQIECBAgQIAAAQIECBAgQIAAAQIECBAgQIAAAQIECBAgQIAAAQIECBAgQIAAAQIECBAgQIAAAQIECBAgQIAAAQIECBAgQIAAAQIECBAgQIAAAQIECBAgQIAAAQIECBAgQIAAAQIECBAgQIAAAQIECBAgQIAAAQIECBAgQIAAAQIECBAgQIAAAQIECBAgQIAAAQIECBAgQIAAAQIECBAgQIAAAQIECBAgQIAAAQIECBAgQIAAAQIECBAgQIAAAQIECBAgQIAAAQIECBAgQIAAAQIECBAgQIAAAQIECBAgQIAAAQIECBAgQIAAAQIECBAgQIAAAQIECBAgQIAAAQIECBAgQIAAAQIECBAgQIAAAQIECBAgQIAAAQIECBAgQIAAAQIECBAgQIAAAQIECBAgQIAAAQIECBAgQIAAAQIECBAgQIAAAQIECBAgQIAAAQIECBAgQIAAAQIECBAgQIAAAQIECBAgQIAAAQIECBAgQIAAAQIECBAgQIAAAQIECBAgQIAAAQIECBAgQIAAAQIECBAgQIAAAQIECBAgQIAAAQIECBAgQIAAAQIECBAgQIAAAQIECBAgQIAAAQIECBAgQIAAAQIECBAgQIAAAQIECBAgQIAAAQIECBAgQIAAAQIECBAgQIAAAQIECBAgQIAAAQIECBAgQIAAAQIECBAgQIAAAQIECBAgQIAAAQIECBAgQIAAAQIECBAgQIAAAQIECBAgQIAAAQIECBAgQIAAAQIECBAgQIAAAQIECBAgQIAAAQIECBAgQIAAAQIECBAgQIAAAQIECBAgQIAAAQIECBAgQIAAAQIECBAgQIAAAQIECBAgQIAAAQIECBAgQIAAAQIECBAgQIAAAQIECBAgQIAAAQIECBAgQIAAAQKNERiNRp3GBDPlQOa57VOmnrnqGjlorv95tfD2jvM+WVWdizqdznBS9fcMe9VHB29Xg2ph0l2rrdnr4v5SZzDhniXI07PvJb1e1Ztw32pUdXsL1YF/VluevPy6pecn3X2a2yfZXJD69qQsTbPeDaxrS+rem8fh3zcwhpNWnX45Nxt9OmVXysRj5qQVNG+Dbr/ff25xcfEP6Zt+88I7GtHi0cUGLe3evbnzWvW1rWcvfGXUH40dWNmyPGtsHS5U2/sL1WDCp5Cy/2mjbrUrXdZfPtLYVSdPVtX27Lt90uxcquhW1cv7O4c61fBbudXoJJv4rk65M2WeppvT2EYn2cR3ScpdKWelzMW0sLDwUBr6pxRJduIe35dkua1zsPfmsBpOkGRLPSWvLo2G1VvZb9J8VxLlcDSq9g/Wv++BVDppvYtJspleT45uw9lhG2JcBj2Ff9rQ5vIC6vWUuUmyOXs/mLPYMmwbPb0zvBsdouAIECDQXgFJtr19J3ICBFog0Mxrsi2AE+JRgbxsq/KybX/mb2Q+4ZXwo8fZyKXEXl52ljeNdra0CWvypVmvpD2H1ryzJStL36QN70u4rTwplGRb8kBrcpgZAGUc/Dbz+xLn6U2O9f/FltjfGgwGX82bKddmm1Y+UazVtvTLfcPh8M/lvrRtrU0avy7xv53Y706gOxsf7BoBzmaSbfyl8DV6ouWrMpif7na7D7e5Gb1e76K049ok3DY347jY0yePpj2PHreyhTfSL+UTLa1Msq08/T7RY6Tk197yIJFpT+RUw32bazjmVA+ZhLRpqhVOp7Kt06mm9lpa+8w3k0l2qdOdndd7tT92VUCAQJ0CM5dkC1bzPzlXZ5c6NgECTRKYySTbJGCxECAw3wKS7Hz3v9YTIFCzgCRbM7DDEyAw3wKS7Hz3v9YTIFCzgCRbM7DDEyAw3wKS7Hz3v9YTIFCzgCRbM7DDEyAw3wKS7Hz3v9YTIFCzgCRbM7DDEyAw3wKS7Hz3v9YTIFCzgCRbM7DDEyAw3wKS7Hz3v9YTIFCzgCRbM3CbDp/v7Gzt18m1yXmcWNMXs/IVheM0d6a3kWRnuntP3rgM5o/kFwG+m/ml+XLn5S/hzbJke3K6urc4O/1wc75IfE/dFTl+vQKSbL2+jT96EuyH82XVtyXQOzOob0w5ZyXZNj742Q6wnMnekp9duSuJ9valpaUPzXZzZ7d1kmxj+jYnkaPhRvycw9vvEnwq85+k3JFEe12Kx8bRx8bw6OLUlnqp6b95wjt/cXHx1k2bNt2RJ8Rb0y9nTS0CFZ0Sgdn8ja9TQjPtg+QVeqebP4MNqPhIleUnZK5P+Wx+vO4zOYN6JIN7b7k3gzvjfW6/Dn172l/GyvZiMYWpnzrOTDnyczix31NK1n0ssTyU+UO5PfUHS+o1TSggyU4IVsfmw5wndTbt3HHu+d++YTS67ZLUMa1+6WfArn4ZWs6mz8olhG9mEH8+99+V249n+W91tL0lx/xS4rw45UjSqznucuZcfjRw9xr13JB1V+VJcE/65t70yx+P2ca19GMwmrI4rcHclPY2Mo5ykaCzsG37zjMu/EICLGVqUwbp6rqOrMh9F+TO76f8rt/v35Prgw9kef/qHWb8dnnSKZdSSmnCVOI5J0+CN2X+8VxC2Jvl72W5XPZxZhuEpk2SbEN6ZFQNR73+4TJImtgnVyXBXp6zp2uSeM9cIzE3RLGWMI486dRy9MkPuhJPSbaXJcFelvml6Zt/ZXnX5IezR90C3tyoW3h2jn9akuv7U8r1QlOzBFYSb7OiEs2ygCTbmAdCp7PQXWzSWWw5U1qZ/pGF7yTBfjnze1ZWzsn8WIcmNHklnpJYn84Z7O0HDx68MWexd+f2G00IUAzHCzRpUB8f2RzdWr4sOlw6tHTwxb+k2S+kLEyp+YO8ebI7yfMTa9RXBvFrGcQPpDycTxk8XrbJ9levse0sryoO5c2lv6ZM842vXbG+Mn2z+iNbJZ6XUh5JuTeXcZbf+Mq2F+b2tB43qco0roAkO65Ujdt183pi1Nv/5qsv/Oz+cz94y/2p6rQaqzv20IcyiL+YFauTbLkk8OuUB3OG9KsM5MPH7LRyJnXMqplffDAt/GHKtD7ClU/P9c7PE9sHUufqJPtA3ux6OH3yy/Td6je65rFvGv/gk2Qb0EXl1KQa9fv7X376pQyc/0wzpHxq4N8ZsEeqzBnRU4nhrqx4LPMXj9wx3wsHYtELwWvTYkg/vJq6Sp0r0xN5RfFonvTuyX9OeGVlpXnzBSTZxvRRp9PdvJhsd+y4mkpwW96tZV/mP0rSfWzz5s1PlXUZ6Mktc/sfEN5lWZ5txHsX5dLEe1OeT3J9JP3y0y1btjx7bFCW2yEgybajn2qLMmexL2QQ35szpF8kof6mVLSSXCXY2tjHOXD53Gv5/Ouz6aMnxtnBNs0UkGSb2S/TjOqZJNjyv7veXKlUcl2R2ND5y+mHH2xoBCo/JQKS7ClhbO9BMpAPtjf62Y08/VLOZE0zILAR15pmgE0TCBAgMJ6AJDuek60IECCwLgFJdl1sdiJAgMB4ApLseE62IkCAwLoEJNl1sdmJAAEC4wlIsuM52YoAAQLrEpBk18VmJwIECIwnIMmO52QrAgQIrEtAkl0Xm50IECAwnoAkO56TrQgQILAuAUl2XWx2IkCAwHgCkux4TrYiQIDAugQk2XWx2YkAAQLjCUiy4znZigABAusSkGTXxWanNQRm4av5ZqENq7tmVr7Kcri6YW257ftk29JTDY8zv6ZwTX78L9//3V35OZuGR3x8ePl1iKW04XOJ//g7Wn4rbbop/XJlaUaL21Z+yHNHaUMbJ0m2jb3WvJg7GcBX5Iumr2heaONFVBJQEtJySTvG26kFW6Ut1+eHF1sQ6eyGSH92+3aqLZuFxDQLbZhqp6tsLIHZem00VpNtRIAAgekJSLLTs1YTAQJzKNDMywW787PUr422bdqxUI36o4m6pWy9OdfWTu91q/6El9bKvqflz87s2K8m27nsu33UqbYPJgr3nY3zVHdof3VGZ1i14U2jNsS4jk444S5taPOmtOCME7Zixu7M5Z1tadJkA3UDDJqZZPftOzzacd6Pl14d/X7USeqZcOpWg+rA4UF2XJhwz6oa5t8bSZSDqqTN8acSZC/7HuiV+YTTqOoOF0YHMntywj03YvO9qfQbKUsbUfkG1FkSbGlz06dnEuDXU3alTDxmmt64NeLrDgaD5/Km3rw8DtcgsGrmBPLue+PPGupCn+e212XquAQIECBAgAABAgQIECBAgAABAgQIECBAgAABAgQIECBAgAABAgQIECBAgAABAgQIECBAgAABAgQIECBAgAABAgQIECBAgAABAgQIECBAgAABAgQIECBAgAABAgQIECBAgAABAgQIECBAgAABAgQIECBAgAABAgQIECBAgAABAgQIECBAgAABAgQIECBAgAABAgQIECBAgAABAgQIECBAgAABAgQIECBAgAABAgQIECBAgAABAgQIECBAgAABAgQIECBAgAABAgQIECBAgAABAgQIECBAgAABAgQIECBAgAABAgQIECBAgAABAgQIECBAgAABAgQIECBAgAABAgQIECBAgAABAgQIECBAgAABAgQIECBAgAABAgQIECBAgAABAgQIECBAgAABAgQIECBAgAABAgQIECBAgAABAgQIECBAgAABAgQIECBAgAABAgQIECBAgAABAgQIECBAgAABAgQIECBAgAABAgQIECBAgAABAgQIECBAgAABAgQIECBAgAABAgQIECBAgAABAgQIECBAgAABAgQIECBAgAABAgQIECBAgAABAgQIECBAgAABAgQIECBAgAABAgQIECBAgAABAgQIECBAgAABAgQIECBAgAABAgQIECBAgAABAgQIECBAgAABAgQIECBAgAABAgQIECBAgAABAgQIECBAgAABAgQIECBAgAABAgQIECBAgAABAgQIECBAgAABAgQIECBAgAABAgQIECBAgAABAgQIECBAgAABAgQIECBAgAABAgQIECBAgAABAgQIECBAgAABAgQIECBAgAABAgQIECBAgAABAgQIECBAgAABAgQIECBAgAABAgQIECBAgAABAgQIECBAgAABAgQIECBAgAABAgQIECBAgAABAgQIECBAgAABAgQIECBAgAABAgQIECBAgAABAgQIECBAgAABAgQIECBAgAABAgQIECBAgAABAgQIECBAgAABAgQIECBAgAABAgQIECBAgAABAgQIECBAgAABAgQIECBAgAABAgQIECBAgAABAgQIECBAgAABAgQIECBAgAABAgQIECBAgAABAgQIECBAgAABAgQIECBAgAABAgQIECBAgAABAgQIECBAgAABAgQIECBAgAABAgQItEDgf7DcTusL+DmcAAAAAElFTkSuQmCC;" parent="Ln4_qjFezgvtbFoJ6TMg-19" vertex="1">
          <mxGeometry x="15" y="20" width="80" height="80" as="geometry" />
        </mxCell>
        <mxCell id="Ln4_qjFezgvtbFoJ6TMg-24" value="" style="group" parent="iqprVtGjsiEywVP_pwhM-2" vertex="1" connectable="0">
          <mxGeometry x="170" y="269" width="110" height="100" as="geometry" />
        </mxCell>
        <mxCell id="Ln4_qjFezgvtbFoJ6TMg-25" value="" style="rounded=0;whiteSpace=wrap;html=1;" parent="Ln4_qjFezgvtbFoJ6TMg-24" vertex="1">
          <mxGeometry y="30" width="110" height="60" as="geometry" />
        </mxCell>
        <mxCell id="Ln4_qjFezgvtbFoJ6TMg-26" value="Application" style="rounded=0;whiteSpace=wrap;html=1;fillColor=#000000;fontColor=#FFFFFF;fontSize=16;" parent="Ln4_qjFezgvtbFoJ6TMg-24" vertex="1">
          <mxGeometry width="110" height="30" as="geometry" />
        </mxCell>
        <mxCell id="Ln4_qjFezgvtbFoJ6TMg-27" value="" style="rounded=0;whiteSpace=wrap;html=1;fillColor=#595959;fontColor=#FFFFFF;align=left;verticalAlign=top;" parent="Ln4_qjFezgvtbFoJ6TMg-24" vertex="1">
          <mxGeometry x="10" y="40" width="90" height="40" as="geometry" />
        </mxCell>
        <mxCell id="Ln4_qjFezgvtbFoJ6TMg-28" value="" style="shape=image;verticalLabelPosition=bottom;labelBackgroundColor=default;verticalAlign=top;aspect=fixed;imageAspect=0;image=data:image/png,iVBORw0KGgoAAAANSUhEUgAAAVkAAAFZCAYAAAAy8lzbAAAAAXNSR0IArs4c6QAAAIRlWElmTU0AKgAAAAgABQESAAMAAAABAAEAAAEaAAUAAAABAAAASgEbAAUAAAABAAAAUgEoAAMAAAABAAIAAIdpAAQAAAABAAAAWgAAAAAAAADcAAAAAQAAANwAAAABAAOgAQADAAAAAQABAACgAgAEAAAAAQAAAVmgAwAEAAAAAQAAAVkAAAAAwupN1QAAAAlwSFlzAAAh1QAAIdUBBJy0nQAAEK9JREFUeAHt3UusJFUZB/DqvnceMC8QDAFnYWJAERCDxmBEAzJG4kYWYEhUlpgoGhNYuJM9MTFBUGOEwEJAI4iJCx6jGzUhKBvUIJiYyAQl8hxmGO70y/+5cOdxc53pvpnqW9X9q8m5VV1dVec7v9Pn6+rqnu6qMhEgQIAAAQIECBAgQIAAAQIECBAgQIAAAQIECBAgQIAAAQIECBAgQIAAAQIECBAgQIAAAQIECBAgQIAAAQIECBAgQIAAAQIECBAgQIAAAQIECBAgQIAAAQIECBAgQIAAAQIECBAgQIAAAQIECBAgQIAAAQIECBAgQIAAAQIECBAgQIAAAQIECBAgQIAAAQIECBAgQIAAAQIECBAgQIAAAQIECBAgQIAAAQIECBAgQIAAAQIECBAgQIAAAQIECBAgQIAAAQIECBAgQIAAAQIECBAgQIAAAQIECBAgQIAAAQIECBAgQIAAAQIECBAgQIAAAQIECBAgQIAAAQIECBAgQIAAAQIECBAgQIAAAQIECBAgQIAAAQIECBAgQIAAAQIECBAgQIAAAQIECBAgQIAAAQIECBAgQIAAAQIECBAgQIAAAQIECBAgQIAAAQIECBAgQIAAAQIECBAgQIAAAQIECBAgQIAAAQIECBAgQIAAAQIECBAgQIAAAQIECBAgQIAAAQIECBAgQIAAAQIECBAgQIAAAQIECBAgQIAAAQIECBAgQIAAAQIECBAgQIAAAQIECBAgQIAAAQIECBAgQIAAAQIECBAgQIAAAQIECBAgQIAAAQIECBAgQIAAAQIECBAgQIAAAQIECBAgQIAAAQIECBAgQIAAAQIECBAgQIAAAQIECBAgQIAAAQIECBAgQIAAAQIECBAgQIAAAQIECBAgQIAAAQIECBAgQIAAAQIECBAgQIAAAQIECBAgQIAAAQIECBAgQIAAAQIECBAgQIAAAQIECBAgQIAAAQIECBAgQIAAAQIECBAgQIAAAQIECBAgQIAAAQIECBAgQIAAAQIECBAgQIAAAQIECBAgQIAAAQIECBAgQIAAAQIECBAgQIAAAQIECBAgQIAAAQIECBAgQIAAAQIECBAgQIAAAQIECBAgQIAAAQIECBAgQIAAAQIECBAgQIAAAQIECBAgQIAAAQIECBAgQIAAAQIECBAgQIAAAQIECBAgQIAAAQIECBAgQIAAAQIECBAgQIAAAQIECBAgQIAAAQIECBAgQIAAAQIECBAgQIAAAQIECBAgQIAAAQIECBAgQIAAAQIECBAgQIAAAQIECBAgQIAAAQKNERiNRp3GBDPlQOa57VOmnrnqGjlorv95tfD2jvM+WVWdizqdznBS9fcMe9VHB29Xg2ph0l2rrdnr4v5SZzDhniXI07PvJb1e1Ztw32pUdXsL1YF/VluevPy6pecn3X2a2yfZXJD69qQsTbPeDaxrS+rem8fh3zcwhpNWnX45Nxt9OmVXysRj5qQVNG+Dbr/ff25xcfEP6Zt+88I7GtHi0cUGLe3evbnzWvW1rWcvfGXUH40dWNmyPGtsHS5U2/sL1WDCp5Cy/2mjbrUrXdZfPtLYVSdPVtX27Lt90uxcquhW1cv7O4c61fBbudXoJJv4rk65M2WeppvT2EYn2cR3ScpdKWelzMW0sLDwUBr6pxRJduIe35dkua1zsPfmsBpOkGRLPSWvLo2G1VvZb9J8VxLlcDSq9g/Wv++BVDppvYtJspleT45uw9lhG2JcBj2Ff9rQ5vIC6vWUuUmyOXs/mLPYMmwbPb0zvBsdouAIECDQXgFJtr19J3ICBFog0Mxrsi2AE+JRgbxsq/KybX/mb2Q+4ZXwo8fZyKXEXl52ljeNdra0CWvypVmvpD2H1ryzJStL36QN70u4rTwplGRb8kBrcpgZAGUc/Dbz+xLn6U2O9f/FltjfGgwGX82bKddmm1Y+UazVtvTLfcPh8M/lvrRtrU0avy7xv53Y706gOxsf7BoBzmaSbfyl8DV6ouWrMpif7na7D7e5Gb1e76K049ok3DY347jY0yePpj2PHreyhTfSL+UTLa1Msq08/T7RY6Tk197yIJFpT+RUw32bazjmVA+ZhLRpqhVOp7Kt06mm9lpa+8w3k0l2qdOdndd7tT92VUCAQJ0CM5dkC1bzPzlXZ5c6NgECTRKYySTbJGCxECAw3wKS7Hz3v9YTIFCzgCRbM7DDEyAw3wKS7Hz3v9YTIFCzgCRbM7DDEyAw3wKS7Hz3v9YTIFCzgCRbM7DDEyAw3wKS7Hz3v9YTIFCzgCRbM7DDEyAw3wKS7Hz3v9YTIFCzgCRbM7DDEyAw3wKS7Hz3v9YTIFCzgCRbM3CbDp/v7Gzt18m1yXmcWNMXs/IVheM0d6a3kWRnuntP3rgM5o/kFwG+m/ml+XLn5S/hzbJke3K6urc4O/1wc75IfE/dFTl+vQKSbL2+jT96EuyH82XVtyXQOzOob0w5ZyXZNj742Q6wnMnekp9duSuJ9valpaUPzXZzZ7d1kmxj+jYnkaPhRvycw9vvEnwq85+k3JFEe12Kx8bRx8bw6OLUlnqp6b95wjt/cXHx1k2bNt2RJ8Rb0y9nTS0CFZ0Sgdn8ja9TQjPtg+QVeqebP4MNqPhIleUnZK5P+Wx+vO4zOYN6JIN7b7k3gzvjfW6/Dn172l/GyvZiMYWpnzrOTDnyczix31NK1n0ssTyU+UO5PfUHS+o1TSggyU4IVsfmw5wndTbt3HHu+d++YTS67ZLUMa1+6WfArn4ZWs6mz8olhG9mEH8+99+V249n+W91tL0lx/xS4rw45UjSqznucuZcfjRw9xr13JB1V+VJcE/65t70yx+P2ca19GMwmrI4rcHclPY2Mo5ykaCzsG37zjMu/EICLGVqUwbp6rqOrMh9F+TO76f8rt/v35Prgw9kef/qHWb8dnnSKZdSSmnCVOI5J0+CN2X+8VxC2Jvl72W5XPZxZhuEpk2SbEN6ZFQNR73+4TJImtgnVyXBXp6zp2uSeM9cIzE3RLGWMI486dRy9MkPuhJPSbaXJcFelvml6Zt/ZXnX5IezR90C3tyoW3h2jn9akuv7U8r1QlOzBFYSb7OiEs2ygCTbmAdCp7PQXWzSWWw5U1qZ/pGF7yTBfjnze1ZWzsn8WIcmNHklnpJYn84Z7O0HDx68MWexd+f2G00IUAzHCzRpUB8f2RzdWr4sOlw6tHTwxb+k2S+kLEyp+YO8ebI7yfMTa9RXBvFrGcQPpDycTxk8XrbJ9levse0sryoO5c2lv6ZM842vXbG+Mn2z+iNbJZ6XUh5JuTeXcZbf+Mq2F+b2tB43qco0roAkO65Ujdt183pi1Nv/5qsv/Oz+cz94y/2p6rQaqzv20IcyiL+YFauTbLkk8OuUB3OG9KsM5MPH7LRyJnXMqplffDAt/GHKtD7ClU/P9c7PE9sHUufqJPtA3ux6OH3yy/Td6je65rFvGv/gk2Qb0EXl1KQa9fv7X376pQyc/0wzpHxq4N8ZsEeqzBnRU4nhrqx4LPMXj9wx3wsHYtELwWvTYkg/vJq6Sp0r0xN5RfFonvTuyX9OeGVlpXnzBSTZxvRRp9PdvJhsd+y4mkpwW96tZV/mP0rSfWzz5s1PlXUZ6Mktc/sfEN5lWZ5txHsX5dLEe1OeT3J9JP3y0y1btjx7bFCW2yEgybajn2qLMmexL2QQ35szpF8kof6mVLSSXCXY2tjHOXD53Gv5/Ouz6aMnxtnBNs0UkGSb2S/TjOqZJNjyv7veXKlUcl2R2ND5y+mHH2xoBCo/JQKS7ClhbO9BMpAPtjf62Y08/VLOZE0zILAR15pmgE0TCBAgMJ6AJDuek60IECCwLgFJdl1sdiJAgMB4ApLseE62IkCAwLoEJNl1sdmJAAEC4wlIsuM52YoAAQLrEpBk18VmJwIECIwnIMmO52QrAgQIrEtAkl0Xm50IECAwnoAkO56TrQgQILAuAUl2XWx2IkCAwHgCkux4TrYiQIDAugQk2XWx2YkAAQLjCUiy4znZigABAusSkGTXxWanNQRm4av5ZqENq7tmVr7Kcri6YW257ftk29JTDY8zv6ZwTX78L9//3V35OZuGR3x8ePl1iKW04XOJ//g7Wn4rbbop/XJlaUaL21Z+yHNHaUMbJ0m2jb3WvJg7GcBX5Iumr2heaONFVBJQEtJySTvG26kFW6Ut1+eHF1sQ6eyGSH92+3aqLZuFxDQLbZhqp6tsLIHZem00VpNtRIAAgekJSLLTs1YTAQJzKNDMywW787PUr422bdqxUI36o4m6pWy9OdfWTu91q/6El9bKvqflz87s2K8m27nsu33UqbYPJgr3nY3zVHdof3VGZ1i14U2jNsS4jk444S5taPOmtOCME7Zixu7M5Z1tadJkA3UDDJqZZPftOzzacd6Pl14d/X7USeqZcOpWg+rA4UF2XJhwz6oa5t8bSZSDqqTN8acSZC/7HuiV+YTTqOoOF0YHMntywj03YvO9qfQbKUsbUfkG1FkSbGlz06dnEuDXU3alTDxmmt64NeLrDgaD5/Km3rw8DtcgsGrmBPLue+PPGupCn+e212XquAQIECBAgAABAgQIECBAgAABAgQIECBAgAABAgQIECBAgAABAgQIECBAgAABAgQIECBAgAABAgQIECBAgAABAgQIECBAgAABAgQIECBAgAABAgQIECBAgAABAgQIECBAgAABAgQIECBAgAABAgQIECBAgAABAgQIECBAgAABAgQIECBAgAABAgQIECBAgAABAgQIECBAgAABAgQIECBAgAABAgQIECBAgAABAgQIECBAgAABAgQIECBAgAABAgQIECBAgAABAgQIECBAgAABAgQIECBAgAABAgQIECBAgAABAgQIECBAgAABAgQIECBAgAABAgQIECBAgAABAgQIECBAgAABAgQIECBAgAABAgQIECBAgAABAgQIECBAgAABAgQIECBAgAABAgQIECBAgAABAgQIECBAgAABAgQIECBAgAABAgQIECBAgAABAgQIECBAgAABAgQIECBAgAABAgQIECBAgAABAgQIECBAgAABAgQIECBAgAABAgQIECBAgAABAgQIECBAgAABAgQIECBAgAABAgQIECBAgAABAgQIECBAgAABAgQIECBAgAABAgQIECBAgAABAgQIECBAgAABAgQIECBAgAABAgQIECBAgAABAgQIECBAgAABAgQIECBAgAABAgQIECBAgAABAgQIECBAgAABAgQIECBAgAABAgQIECBAgAABAgQIECBAgAABAgQIECBAgAABAgQIECBAgAABAgQIECBAgAABAgQIECBAgAABAgQIECBAgAABAgQIECBAgAABAgQIECBAgAABAgQIECBAgAABAgQIECBAgAABAgQIECBAgAABAgQIECBAgAABAgQIECBAgAABAgQIECBAgAABAgQIECBAgAABAgQIECBAgAABAgQIECBAgAABAgQIECBAgAABAgQIECBAgAABAgQIECBAgAABAgQIECBAgAABAgQIECBAgAABAgQIECBAgAABAgQIECBAgAABAgQIECBAgAABAgQIECBAgAABAgQIECBAgAABAgQIECBAgAABAgQIECBAgAABAgQIECBAgAABAgQIECBAgAABAgQIECBAgAABAgQIECBAgAABAgQIECBAgAABAgQIECBAgAABAgQIECBAgAABAgQItEDgf7DcTusL+DmcAAAAAElFTkSuQmCC;" parent="Ln4_qjFezgvtbFoJ6TMg-24" vertex="1">
          <mxGeometry x="15" y="20" width="80" height="80" as="geometry" />
        </mxCell>
        <mxCell id="Ln4_qjFezgvtbFoJ6TMg-29" style="edgeStyle=none;rounded=0;orthogonalLoop=1;jettySize=auto;html=1;exitX=1;exitY=0.5;exitDx=0;exitDy=0;startArrow=oval;startFill=1;endArrow=block;endFill=1;strokeWidth=5;strokeColor=#4fb81c;entryX=0;entryY=0.5;entryDx=0;entryDy=0;" parent="iqprVtGjsiEywVP_pwhM-2" source="Ln4_qjFezgvtbFoJ6TMg-22" target="Ln4_qjFezgvtbFoJ6TMg-27" edge="1">
          <mxGeometry relative="1" as="geometry">
            <mxPoint x="360" y="361" as="sourcePoint" />
            <mxPoint x="150" y="280" as="targetPoint" />
            <Array as="points">
              <mxPoint x="140" y="270" />
              <mxPoint x="140" y="329" />
            </Array>
          </mxGeometry>
        </mxCell>
        <mxCell id="Ln4_qjFezgvtbFoJ6TMg-52" value="" style="group" parent="iqprVtGjsiEywVP_pwhM-2" vertex="1" connectable="0">
          <mxGeometry x="170" y="149" width="110" height="100" as="geometry" />
        </mxCell>
        <mxCell id="Ln4_qjFezgvtbFoJ6TMg-53" value="" style="rounded=0;whiteSpace=wrap;html=1;" parent="Ln4_qjFezgvtbFoJ6TMg-52" vertex="1">
          <mxGeometry y="30" width="110" height="60" as="geometry" />
        </mxCell>
        <mxCell id="Ln4_qjFezgvtbFoJ6TMg-54" value="Application" style="rounded=0;whiteSpace=wrap;html=1;fillColor=#000000;fontColor=#FFFFFF;fontSize=16;" parent="Ln4_qjFezgvtbFoJ6TMg-52" vertex="1">
          <mxGeometry width="110" height="30" as="geometry" />
        </mxCell>
        <mxCell id="Ln4_qjFezgvtbFoJ6TMg-55" value="" style="rounded=0;whiteSpace=wrap;html=1;fillColor=#595959;fontColor=#FFFFFF;align=left;verticalAlign=top;" parent="Ln4_qjFezgvtbFoJ6TMg-52" vertex="1">
          <mxGeometry x="10" y="40" width="90" height="40" as="geometry" />
        </mxCell>
        <mxCell id="Ln4_qjFezgvtbFoJ6TMg-56" value="" style="shape=image;verticalLabelPosition=bottom;labelBackgroundColor=default;verticalAlign=top;aspect=fixed;imageAspect=0;image=data:image/png,iVBORw0KGgoAAAANSUhEUgAAAVkAAAFZCAYAAAAy8lzbAAAAAXNSR0IArs4c6QAAAIRlWElmTU0AKgAAAAgABQESAAMAAAABAAEAAAEaAAUAAAABAAAASgEbAAUAAAABAAAAUgEoAAMAAAABAAIAAIdpAAQAAAABAAAAWgAAAAAAAADcAAAAAQAAANwAAAABAAOgAQADAAAAAQABAACgAgAEAAAAAQAAAVmgAwAEAAAAAQAAAVkAAAAAwupN1QAAAAlwSFlzAAAh1QAAIdUBBJy0nQAAEK9JREFUeAHt3UusJFUZB/DqvnceMC8QDAFnYWJAERCDxmBEAzJG4kYWYEhUlpgoGhNYuJM9MTFBUGOEwEJAI4iJCx6jGzUhKBvUIJiYyAQl8hxmGO70y/+5cOdxc53pvpnqW9X9q8m5VV1dVec7v9Pn6+rqnu6qMhEgQIAAAQIECBAgQIAAAQIECBAgQIAAAQIECBAgQIAAAQIECBAgQIAAAQIECBAgQIAAAQIECBAgQIAAAQIECBAgQIAAAQIECBAgQIAAAQIECBAgQIAAAQIECBAgQIAAAQIECBAgQIAAAQIECBAgQIAAAQIECBAgQIAAAQIECBAgQIAAAQIECBAgQIAAAQIECBAgQIAAAQIECBAgQIAAAQIECBAgQIAAAQIECBAgQIAAAQIECBAgQIAAAQIECBAgQIAAAQIECBAgQIAAAQIECBAgQIAAAQIECBAgQIAAAQIECBAgQIAAAQIECBAgQIAAAQIECBAgQIAAAQIECBAgQIAAAQIECBAgQIAAAQIECBAgQIAAAQIECBAgQIAAAQIECBAgQIAAAQIECBAgQIAAAQIECBAgQIAAAQIECBAgQIAAAQIECBAgQIAAAQIECBAgQIAAAQIECBAgQIAAAQIECBAgQIAAAQIECBAgQIAAAQIECBAgQIAAAQIECBAgQIAAAQIECBAgQIAAAQIECBAgQIAAAQIECBAgQIAAAQIECBAgQIAAAQIECBAgQIAAAQIECBAgQIAAAQIECBAgQIAAAQIECBAgQIAAAQIECBAgQIAAAQIECBAgQIAAAQIECBAgQIAAAQIECBAgQIAAAQIECBAgQIAAAQIECBAgQIAAAQIECBAgQIAAAQIECBAgQIAAAQIECBAgQIAAAQIECBAgQIAAAQIECBAgQIAAAQIECBAgQIAAAQIECBAgQIAAAQIECBAgQIAAAQIECBAgQIAAAQIECBAgQIAAAQIECBAgQIAAAQIECBAgQIAAAQIECBAgQIAAAQIECBAgQIAAAQIECBAgQIAAAQIECBAgQIAAAQIECBAgQIAAAQIECBAgQIAAAQIECBAgQIAAAQIECBAgQIAAAQIECBAgQIAAAQIECBAgQIAAAQIECBAgQIAAAQIECBAgQIAAAQIECBAgQIAAAQIECBAgQIAAAQIECBAgQIAAAQIECBAgQIAAAQIECBAgQIAAAQIECBAgQIAAAQIECBAgQIAAAQIECBAgQIAAAQIECBAgQIAAAQIECBAgQIAAAQIECBAgQIAAAQIECBAgQIAAAQIECBAgQIAAAQKNERiNRp3GBDPlQOa57VOmnrnqGjlorv95tfD2jvM+WVWdizqdznBS9fcMe9VHB29Xg2ph0l2rrdnr4v5SZzDhniXI07PvJb1e1Ztw32pUdXsL1YF/VluevPy6pecn3X2a2yfZXJD69qQsTbPeDaxrS+rem8fh3zcwhpNWnX45Nxt9OmVXysRj5qQVNG+Dbr/ff25xcfEP6Zt+88I7GtHi0cUGLe3evbnzWvW1rWcvfGXUH40dWNmyPGtsHS5U2/sL1WDCp5Cy/2mjbrUrXdZfPtLYVSdPVtX27Lt90uxcquhW1cv7O4c61fBbudXoJJv4rk65M2WeppvT2EYn2cR3ScpdKWelzMW0sLDwUBr6pxRJduIe35dkua1zsPfmsBpOkGRLPSWvLo2G1VvZb9J8VxLlcDSq9g/Wv++BVDppvYtJspleT45uw9lhG2JcBj2Ff9rQ5vIC6vWUuUmyOXs/mLPYMmwbPb0zvBsdouAIECDQXgFJtr19J3ICBFog0Mxrsi2AE+JRgbxsq/KybX/mb2Q+4ZXwo8fZyKXEXl52ljeNdra0CWvypVmvpD2H1ryzJStL36QN70u4rTwplGRb8kBrcpgZAGUc/Dbz+xLn6U2O9f/FltjfGgwGX82bKddmm1Y+UazVtvTLfcPh8M/lvrRtrU0avy7xv53Y706gOxsf7BoBzmaSbfyl8DV6ouWrMpif7na7D7e5Gb1e76K049ok3DY347jY0yePpj2PHreyhTfSL+UTLa1Msq08/T7RY6Tk197yIJFpT+RUw32bazjmVA+ZhLRpqhVOp7Kt06mm9lpa+8w3k0l2qdOdndd7tT92VUCAQJ0CM5dkC1bzPzlXZ5c6NgECTRKYySTbJGCxECAw3wKS7Hz3v9YTIFCzgCRbM7DDEyAw3wKS7Hz3v9YTIFCzgCRbM7DDEyAw3wKS7Hz3v9YTIFCzgCRbM7DDEyAw3wKS7Hz3v9YTIFCzgCRbM7DDEyAw3wKS7Hz3v9YTIFCzgCRbM7DDEyAw3wKS7Hz3v9YTIFCzgCRbM3CbDp/v7Gzt18m1yXmcWNMXs/IVheM0d6a3kWRnuntP3rgM5o/kFwG+m/ml+XLn5S/hzbJke3K6urc4O/1wc75IfE/dFTl+vQKSbL2+jT96EuyH82XVtyXQOzOob0w5ZyXZNj742Q6wnMnekp9duSuJ9valpaUPzXZzZ7d1kmxj+jYnkaPhRvycw9vvEnwq85+k3JFEe12Kx8bRx8bw6OLUlnqp6b95wjt/cXHx1k2bNt2RJ8Rb0y9nTS0CFZ0Sgdn8ja9TQjPtg+QVeqebP4MNqPhIleUnZK5P+Wx+vO4zOYN6JIN7b7k3gzvjfW6/Dn172l/GyvZiMYWpnzrOTDnyczix31NK1n0ssTyU+UO5PfUHS+o1TSggyU4IVsfmw5wndTbt3HHu+d++YTS67ZLUMa1+6WfArn4ZWs6mz8olhG9mEH8+99+V249n+W91tL0lx/xS4rw45UjSqznucuZcfjRw9xr13JB1V+VJcE/65t70yx+P2ca19GMwmrI4rcHclPY2Mo5ykaCzsG37zjMu/EICLGVqUwbp6rqOrMh9F+TO76f8rt/v35Prgw9kef/qHWb8dnnSKZdSSmnCVOI5J0+CN2X+8VxC2Jvl72W5XPZxZhuEpk2SbEN6ZFQNR73+4TJImtgnVyXBXp6zp2uSeM9cIzE3RLGWMI486dRy9MkPuhJPSbaXJcFelvml6Zt/ZXnX5IezR90C3tyoW3h2jn9akuv7U8r1QlOzBFYSb7OiEs2ygCTbmAdCp7PQXWzSWWw5U1qZ/pGF7yTBfjnze1ZWzsn8WIcmNHklnpJYn84Z7O0HDx68MWexd+f2G00IUAzHCzRpUB8f2RzdWr4sOlw6tHTwxb+k2S+kLEyp+YO8ebI7yfMTa9RXBvFrGcQPpDycTxk8XrbJ9levse0sryoO5c2lv6ZM842vXbG+Mn2z+iNbJZ6XUh5JuTeXcZbf+Mq2F+b2tB43qco0roAkO65Ujdt183pi1Nv/5qsv/Oz+cz94y/2p6rQaqzv20IcyiL+YFauTbLkk8OuUB3OG9KsM5MPH7LRyJnXMqplffDAt/GHKtD7ClU/P9c7PE9sHUufqJPtA3ux6OH3yy/Td6je65rFvGv/gk2Qb0EXl1KQa9fv7X376pQyc/0wzpHxq4N8ZsEeqzBnRU4nhrqx4LPMXj9wx3wsHYtELwWvTYkg/vJq6Sp0r0xN5RfFonvTuyX9OeGVlpXnzBSTZxvRRp9PdvJhsd+y4mkpwW96tZV/mP0rSfWzz5s1PlXUZ6Mktc/sfEN5lWZ5txHsX5dLEe1OeT3J9JP3y0y1btjx7bFCW2yEgybajn2qLMmexL2QQ35szpF8kof6mVLSSXCXY2tjHOXD53Gv5/Ouz6aMnxtnBNs0UkGSb2S/TjOqZJNjyv7veXKlUcl2R2ND5y+mHH2xoBCo/JQKS7ClhbO9BMpAPtjf62Y08/VLOZE0zILAR15pmgE0TCBAgMJ6AJDuek60IECCwLgFJdl1sdiJAgMB4ApLseE62IkCAwLoEJNl1sdmJAAEC4wlIsuM52YoAAQLrEpBk18VmJwIECIwnIMmO52QrAgQIrEtAkl0Xm50IECAwnoAkO56TrQgQILAuAUl2XWx2IkCAwHgCkux4TrYiQIDAugQk2XWx2YkAAQLjCUiy4znZigABAusSkGTXxWanNQRm4av5ZqENq7tmVr7Kcri6YW257ftk29JTDY8zv6ZwTX78L9//3V35OZuGR3x8ePl1iKW04XOJ//g7Wn4rbbop/XJlaUaL21Z+yHNHaUMbJ0m2jb3WvJg7GcBX5Iumr2heaONFVBJQEtJySTvG26kFW6Ut1+eHF1sQ6eyGSH92+3aqLZuFxDQLbZhqp6tsLIHZem00VpNtRIAAgekJSLLTs1YTAQJzKNDMywW787PUr422bdqxUI36o4m6pWy9OdfWTu91q/6El9bKvqflz87s2K8m27nsu33UqbYPJgr3nY3zVHdof3VGZ1i14U2jNsS4jk444S5taPOmtOCME7Zixu7M5Z1tadJkA3UDDJqZZPftOzzacd6Pl14d/X7USeqZcOpWg+rA4UF2XJhwz6oa5t8bSZSDqqTN8acSZC/7HuiV+YTTqOoOF0YHMntywj03YvO9qfQbKUsbUfkG1FkSbGlz06dnEuDXU3alTDxmmt64NeLrDgaD5/Km3rw8DtcgsGrmBPLue+PPGupCn+e212XquAQIECBAgAABAgQIECBAgAABAgQIECBAgAABAgQIECBAgAABAgQIECBAgAABAgQIECBAgAABAgQIECBAgAABAgQIECBAgAABAgQIECBAgAABAgQIECBAgAABAgQIECBAgAABAgQIECBAgAABAgQIECBAgAABAgQIECBAgAABAgQIECBAgAABAgQIECBAgAABAgQIECBAgAABAgQIECBAgAABAgQIECBAgAABAgQIECBAgAABAgQIECBAgAABAgQIECBAgAABAgQIECBAgAABAgQIECBAgAABAgQIECBAgAABAgQIECBAgAABAgQIECBAgAABAgQIECBAgAABAgQIECBAgAABAgQIECBAgAABAgQIECBAgAABAgQIECBAgAABAgQIECBAgAABAgQIECBAgAABAgQIECBAgAABAgQIECBAgAABAgQIECBAgAABAgQIECBAgAABAgQIECBAgAABAgQIECBAgAABAgQIECBAgAABAgQIECBAgAABAgQIECBAgAABAgQIECBAgAABAgQIECBAgAABAgQIECBAgAABAgQIECBAgAABAgQIECBAgAABAgQIECBAgAABAgQIECBAgAABAgQIECBAgAABAgQIECBAgAABAgQIECBAgAABAgQIECBAgAABAgQIECBAgAABAgQIECBAgAABAgQIECBAgAABAgQIECBAgAABAgQIECBAgAABAgQIECBAgAABAgQIECBAgAABAgQIECBAgAABAgQIECBAgAABAgQIECBAgAABAgQIECBAgAABAgQIECBAgAABAgQIECBAgAABAgQIECBAgAABAgQIECBAgAABAgQIECBAgAABAgQIECBAgAABAgQIECBAgAABAgQIECBAgAABAgQIECBAgAABAgQIECBAgAABAgQIECBAgAABAgQIECBAgAABAgQIECBAgAABAgQIECBAgAABAgQIECBAgAABAgQIECBAgAABAgQIECBAgAABAgQIECBAgAABAgQIECBAgAABAgQIECBAgAABAgQIECBAgAABAgQIECBAgAABAgQIECBAgAABAgQIECBAgAABAgQIECBAgAABAgQIECBAgAABAgQIECBAgAABAgQIECBAgAABAgQIECBAgAABAgQItEDgf7DcTusL+DmcAAAAAElFTkSuQmCC;" parent="Ln4_qjFezgvtbFoJ6TMg-52" vertex="1">
          <mxGeometry x="15" y="20" width="80" height="80" as="geometry" />
        </mxCell>
        <mxCell id="Ln4_qjFezgvtbFoJ6TMg-57" style="edgeStyle=none;rounded=0;orthogonalLoop=1;jettySize=auto;html=1;startArrow=oval;startFill=1;endArrow=block;endFill=1;strokeWidth=5;strokeColor=#4fb81c;entryX=0;entryY=0.5;entryDx=0;entryDy=0;" parent="iqprVtGjsiEywVP_pwhM-2" target="Ln4_qjFezgvtbFoJ6TMg-55" edge="1">
          <mxGeometry relative="1" as="geometry">
            <mxPoint x="110" y="270" as="sourcePoint" />
            <mxPoint x="190" y="339" as="targetPoint" />
            <Array as="points">
              <mxPoint x="140" y="270" />
              <mxPoint x="140" y="209" />
            </Array>
          </mxGeometry>
        </mxCell>
        <mxCell id="Ln4_qjFezgvtbFoJ6TMg-67" value="&lt;div style=&quot;font-size: 14px;&quot;&gt;&lt;div&gt;&lt;u&gt;Example&lt;/u&gt;: Exchange of business partner master data between SAP S/4HANA and SAP Sales Cloud and SAP Commerce Cloud.&lt;/div&gt;&lt;div&gt;&lt;br&gt;&lt;/div&gt;&lt;/div&gt;" style="rounded=0;whiteSpace=wrap;html=1;fontColor=#000000;fillColor=#D9EDCB;strokeColor=#D9EDCB;align=left;verticalAlign=top;fontSize=14;" parent="iqprVtGjsiEywVP_pwhM-2" vertex="1">
          <mxGeometry y="400" width="290" height="100" as="geometry" />
        </mxCell>
        <mxCell id="iqprVtGjsiEywVP_pwhM-3" value="" style="group" vertex="1" connectable="0" parent="1">
          <mxGeometry x="680" y="40" width="290" height="500" as="geometry" />
        </mxCell>
        <mxCell id="Ln4_qjFezgvtbFoJ6TMg-4" value="&lt;font style=&quot;font-size: 16px;&quot;&gt;B2B Integration&lt;/font&gt;" style="rounded=0;whiteSpace=wrap;html=1;fontColor=#FFFFFF;fillColor=#4FB81C;strokeColor=#4FB81C;fontSize=16;shadow=1;" parent="iqprVtGjsiEywVP_pwhM-3" vertex="1">
          <mxGeometry width="290" height="60" as="geometry" />
        </mxCell>
        <mxCell id="Ln4_qjFezgvtbFoJ6TMg-30" value="&lt;div style=&quot;&quot;&gt;&lt;div style=&quot;&quot;&gt;&lt;font color=&quot;#000000&quot;&gt;Chaining of business process steps between business partners by the exchange of transactional data leveraging standard B2B protocols.&lt;/font&gt;&lt;/div&gt;&lt;div style=&quot;font-size: 16px;&quot;&gt;&lt;br&gt;&lt;/div&gt;&lt;/div&gt;" style="rounded=0;whiteSpace=wrap;html=1;fontColor=#FFFFFF;fillColor=#FFFFFF;strokeColor=#4FB81C;fontSize=16;shadow=1;align=center;verticalAlign=top;" parent="iqprVtGjsiEywVP_pwhM-3" vertex="1">
          <mxGeometry y="60" width="290" height="320" as="geometry" />
        </mxCell>
        <mxCell id="Ln4_qjFezgvtbFoJ6TMg-31" value="" style="group" parent="iqprVtGjsiEywVP_pwhM-3" vertex="1" connectable="0">
          <mxGeometry x="10" y="210" width="115" height="100" as="geometry" />
        </mxCell>
        <mxCell id="Ln4_qjFezgvtbFoJ6TMg-32" value="" style="rounded=0;whiteSpace=wrap;html=1;" parent="Ln4_qjFezgvtbFoJ6TMg-31" vertex="1">
          <mxGeometry y="30" width="110" height="60" as="geometry" />
        </mxCell>
        <mxCell id="Ln4_qjFezgvtbFoJ6TMg-33" value="Application" style="rounded=0;whiteSpace=wrap;html=1;fillColor=#000000;fontColor=#FFFFFF;fontSize=16;" parent="Ln4_qjFezgvtbFoJ6TMg-31" vertex="1">
          <mxGeometry width="110" height="30" as="geometry" />
        </mxCell>
        <mxCell id="Ln4_qjFezgvtbFoJ6TMg-34" value="" style="rounded=0;whiteSpace=wrap;html=1;fillColor=#595959;fontColor=#FFFFFF;align=left;verticalAlign=top;" parent="Ln4_qjFezgvtbFoJ6TMg-31" vertex="1">
          <mxGeometry x="10" y="40" width="90" height="40" as="geometry" />
        </mxCell>
        <mxCell id="Ln4_qjFezgvtbFoJ6TMg-35" value="" style="shape=image;verticalLabelPosition=bottom;labelBackgroundColor=default;verticalAlign=top;aspect=fixed;imageAspect=0;image=data:image/png,iVBORw0KGgoAAAANSUhEUgAAAVkAAAFZCAYAAAAy8lzbAAAAAXNSR0IArs4c6QAAAIRlWElmTU0AKgAAAAgABQESAAMAAAABAAEAAAEaAAUAAAABAAAASgEbAAUAAAABAAAAUgEoAAMAAAABAAIAAIdpAAQAAAABAAAAWgAAAAAAAADcAAAAAQAAANwAAAABAAOgAQADAAAAAQABAACgAgAEAAAAAQAAAVmgAwAEAAAAAQAAAVkAAAAAwupN1QAAAAlwSFlzAAAh1QAAIdUBBJy0nQAAEK9JREFUeAHt3UusJFUZB/DqvnceMC8QDAFnYWJAERCDxmBEAzJG4kYWYEhUlpgoGhNYuJM9MTFBUGOEwEJAI4iJCx6jGzUhKBvUIJiYyAQl8hxmGO70y/+5cOdxc53pvpnqW9X9q8m5VV1dVec7v9Pn6+rqnu6qMhEgQIAAAQIECBAgQIAAAQIECBAgQIAAAQIECBAgQIAAAQIECBAgQIAAAQIECBAgQIAAAQIECBAgQIAAAQIECBAgQIAAAQIECBAgQIAAAQIECBAgQIAAAQIECBAgQIAAAQIECBAgQIAAAQIECBAgQIAAAQIECBAgQIAAAQIECBAgQIAAAQIECBAgQIAAAQIECBAgQIAAAQIECBAgQIAAAQIECBAgQIAAAQIECBAgQIAAAQIECBAgQIAAAQIECBAgQIAAAQIECBAgQIAAAQIECBAgQIAAAQIECBAgQIAAAQIECBAgQIAAAQIECBAgQIAAAQIECBAgQIAAAQIECBAgQIAAAQIECBAgQIAAAQIECBAgQIAAAQIECBAgQIAAAQIECBAgQIAAAQIECBAgQIAAAQIECBAgQIAAAQIECBAgQIAAAQIECBAgQIAAAQIECBAgQIAAAQIECBAgQIAAAQIECBAgQIAAAQIECBAgQIAAAQIECBAgQIAAAQIECBAgQIAAAQIECBAgQIAAAQIECBAgQIAAAQIECBAgQIAAAQIECBAgQIAAAQIECBAgQIAAAQIECBAgQIAAAQIECBAgQIAAAQIECBAgQIAAAQIECBAgQIAAAQIECBAgQIAAAQIECBAgQIAAAQIECBAgQIAAAQIECBAgQIAAAQIECBAgQIAAAQIECBAgQIAAAQIECBAgQIAAAQIECBAgQIAAAQIECBAgQIAAAQIECBAgQIAAAQIECBAgQIAAAQIECBAgQIAAAQIECBAgQIAAAQIECBAgQIAAAQIECBAgQIAAAQIECBAgQIAAAQIECBAgQIAAAQIECBAgQIAAAQIECBAgQIAAAQIECBAgQIAAAQIECBAgQIAAAQIECBAgQIAAAQIECBAgQIAAAQIECBAgQIAAAQIECBAgQIAAAQIECBAgQIAAAQIECBAgQIAAAQIECBAgQIAAAQIECBAgQIAAAQIECBAgQIAAAQIECBAgQIAAAQIECBAgQIAAAQIECBAgQIAAAQIECBAgQIAAAQIECBAgQIAAAQIECBAgQIAAAQIECBAgQIAAAQIECBAgQIAAAQIECBAgQIAAAQIECBAgQIAAAQIECBAgQIAAAQIECBAgQIAAAQKNERiNRp3GBDPlQOa57VOmnrnqGjlorv95tfD2jvM+WVWdizqdznBS9fcMe9VHB29Xg2ph0l2rrdnr4v5SZzDhniXI07PvJb1e1Ztw32pUdXsL1YF/VluevPy6pecn3X2a2yfZXJD69qQsTbPeDaxrS+rem8fh3zcwhpNWnX45Nxt9OmVXysRj5qQVNG+Dbr/ff25xcfEP6Zt+88I7GtHi0cUGLe3evbnzWvW1rWcvfGXUH40dWNmyPGtsHS5U2/sL1WDCp5Cy/2mjbrUrXdZfPtLYVSdPVtX27Lt90uxcquhW1cv7O4c61fBbudXoJJv4rk65M2WeppvT2EYn2cR3ScpdKWelzMW0sLDwUBr6pxRJduIe35dkua1zsPfmsBpOkGRLPSWvLo2G1VvZb9J8VxLlcDSq9g/Wv++BVDppvYtJspleT45uw9lhG2JcBj2Ff9rQ5vIC6vWUuUmyOXs/mLPYMmwbPb0zvBsdouAIECDQXgFJtr19J3ICBFog0Mxrsi2AE+JRgbxsq/KybX/mb2Q+4ZXwo8fZyKXEXl52ljeNdra0CWvypVmvpD2H1ryzJStL36QN70u4rTwplGRb8kBrcpgZAGUc/Dbz+xLn6U2O9f/FltjfGgwGX82bKddmm1Y+UazVtvTLfcPh8M/lvrRtrU0avy7xv53Y706gOxsf7BoBzmaSbfyl8DV6ouWrMpif7na7D7e5Gb1e76K049ok3DY347jY0yePpj2PHreyhTfSL+UTLa1Msq08/T7RY6Tk197yIJFpT+RUw32bazjmVA+ZhLRpqhVOp7Kt06mm9lpa+8w3k0l2qdOdndd7tT92VUCAQJ0CM5dkC1bzPzlXZ5c6NgECTRKYySTbJGCxECAw3wKS7Hz3v9YTIFCzgCRbM7DDEyAw3wKS7Hz3v9YTIFCzgCRbM7DDEyAw3wKS7Hz3v9YTIFCzgCRbM7DDEyAw3wKS7Hz3v9YTIFCzgCRbM7DDEyAw3wKS7Hz3v9YTIFCzgCRbM7DDEyAw3wKS7Hz3v9YTIFCzgCRbM3CbDp/v7Gzt18m1yXmcWNMXs/IVheM0d6a3kWRnuntP3rgM5o/kFwG+m/ml+XLn5S/hzbJke3K6urc4O/1wc75IfE/dFTl+vQKSbL2+jT96EuyH82XVtyXQOzOob0w5ZyXZNj742Q6wnMnekp9duSuJ9valpaUPzXZzZ7d1kmxj+jYnkaPhRvycw9vvEnwq85+k3JFEe12Kx8bRx8bw6OLUlnqp6b95wjt/cXHx1k2bNt2RJ8Rb0y9nTS0CFZ0Sgdn8ja9TQjPtg+QVeqebP4MNqPhIleUnZK5P+Wx+vO4zOYN6JIN7b7k3gzvjfW6/Dn172l/GyvZiMYWpnzrOTDnyczix31NK1n0ssTyU+UO5PfUHS+o1TSggyU4IVsfmw5wndTbt3HHu+d++YTS67ZLUMa1+6WfArn4ZWs6mz8olhG9mEH8+99+V249n+W91tL0lx/xS4rw45UjSqznucuZcfjRw9xr13JB1V+VJcE/65t70yx+P2ca19GMwmrI4rcHclPY2Mo5ykaCzsG37zjMu/EICLGVqUwbp6rqOrMh9F+TO76f8rt/v35Prgw9kef/qHWb8dnnSKZdSSmnCVOI5J0+CN2X+8VxC2Jvl72W5XPZxZhuEpk2SbEN6ZFQNR73+4TJImtgnVyXBXp6zp2uSeM9cIzE3RLGWMI486dRy9MkPuhJPSbaXJcFelvml6Zt/ZXnX5IezR90C3tyoW3h2jn9akuv7U8r1QlOzBFYSb7OiEs2ygCTbmAdCp7PQXWzSWWw5U1qZ/pGF7yTBfjnze1ZWzsn8WIcmNHklnpJYn84Z7O0HDx68MWexd+f2G00IUAzHCzRpUB8f2RzdWr4sOlw6tHTwxb+k2S+kLEyp+YO8ebI7yfMTa9RXBvFrGcQPpDycTxk8XrbJ9levse0sryoO5c2lv6ZM842vXbG+Mn2z+iNbJZ6XUh5JuTeXcZbf+Mq2F+b2tB43qco0roAkO65Ujdt183pi1Nv/5qsv/Oz+cz94y/2p6rQaqzv20IcyiL+YFauTbLkk8OuUB3OG9KsM5MPH7LRyJnXMqplffDAt/GHKtD7ClU/P9c7PE9sHUufqJPtA3ux6OH3yy/Td6je65rFvGv/gk2Qb0EXl1KQa9fv7X376pQyc/0wzpHxq4N8ZsEeqzBnRU4nhrqx4LPMXj9wx3wsHYtELwWvTYkg/vJq6Sp0r0xN5RfFonvTuyX9OeGVlpXnzBSTZxvRRp9PdvJhsd+y4mkpwW96tZV/mP0rSfWzz5s1PlXUZ6Mktc/sfEN5lWZ5txHsX5dLEe1OeT3J9JP3y0y1btjx7bFCW2yEgybajn2qLMmexL2QQ35szpF8kof6mVLSSXCXY2tjHOXD53Gv5/Ouz6aMnxtnBNs0UkGSb2S/TjOqZJNjyv7veXKlUcl2R2ND5y+mHH2xoBCo/JQKS7ClhbO9BMpAPtjf62Y08/VLOZE0zILAR15pmgE0TCBAgMJ6AJDuek60IECCwLgFJdl1sdiJAgMB4ApLseE62IkCAwLoEJNl1sdmJAAEC4wlIsuM52YoAAQLrEpBk18VmJwIECIwnIMmO52QrAgQIrEtAkl0Xm50IECAwnoAkO56TrQgQILAuAUl2XWx2IkCAwHgCkux4TrYiQIDAugQk2XWx2YkAAQLjCUiy4znZigABAusSkGTXxWanNQRm4av5ZqENq7tmVr7Kcri6YW257ftk29JTDY8zv6ZwTX78L9//3V35OZuGR3x8ePl1iKW04XOJ//g7Wn4rbbop/XJlaUaL21Z+yHNHaUMbJ0m2jb3WvJg7GcBX5Iumr2heaONFVBJQEtJySTvG26kFW6Ut1+eHF1sQ6eyGSH92+3aqLZuFxDQLbZhqp6tsLIHZem00VpNtRIAAgekJSLLTs1YTAQJzKNDMywW787PUr422bdqxUI36o4m6pWy9OdfWTu91q/6El9bKvqflz87s2K8m27nsu33UqbYPJgr3nY3zVHdof3VGZ1i14U2jNsS4jk444S5taPOmtOCME7Zixu7M5Z1tadJkA3UDDJqZZPftOzzacd6Pl14d/X7USeqZcOpWg+rA4UF2XJhwz6oa5t8bSZSDqqTN8acSZC/7HuiV+YTTqOoOF0YHMntywj03YvO9qfQbKUsbUfkG1FkSbGlz06dnEuDXU3alTDxmmt64NeLrDgaD5/Km3rw8DtcgsGrmBPLue+PPGupCn+e212XquAQIECBAgAABAgQIECBAgAABAgQIECBAgAABAgQIECBAgAABAgQIECBAgAABAgQIECBAgAABAgQIECBAgAABAgQIECBAgAABAgQIECBAgAABAgQIECBAgAABAgQIECBAgAABAgQIECBAgAABAgQIECBAgAABAgQIECBAgAABAgQIECBAgAABAgQIECBAgAABAgQIECBAgAABAgQIECBAgAABAgQIECBAgAABAgQIECBAgAABAgQIECBAgAABAgQIECBAgAABAgQIECBAgAABAgQIECBAgAABAgQIECBAgAABAgQIECBAgAABAgQIECBAgAABAgQIECBAgAABAgQIECBAgAABAgQIECBAgAABAgQIECBAgAABAgQIECBAgAABAgQIECBAgAABAgQIECBAgAABAgQIECBAgAABAgQIECBAgAABAgQIECBAgAABAgQIECBAgAABAgQIECBAgAABAgQIECBAgAABAgQIECBAgAABAgQIECBAgAABAgQIECBAgAABAgQIECBAgAABAgQIECBAgAABAgQIECBAgAABAgQIECBAgAABAgQIECBAgAABAgQIECBAgAABAgQIECBAgAABAgQIECBAgAABAgQIECBAgAABAgQIECBAgAABAgQIECBAgAABAgQIECBAgAABAgQIECBAgAABAgQIECBAgAABAgQIECBAgAABAgQIECBAgAABAgQIECBAgAABAgQIECBAgAABAgQIECBAgAABAgQIECBAgAABAgQIECBAgAABAgQIECBAgAABAgQIECBAgAABAgQIECBAgAABAgQIECBAgAABAgQIECBAgAABAgQIECBAgAABAgQIECBAgAABAgQIECBAgAABAgQIECBAgAABAgQIECBAgAABAgQIECBAgAABAgQIECBAgAABAgQIECBAgAABAgQIECBAgAABAgQIECBAgAABAgQIECBAgAABAgQIECBAgAABAgQIECBAgAABAgQIECBAgAABAgQIECBAgAABAgQIECBAgAABAgQIECBAgAABAgQIECBAgAABAgQIECBAgAABAgQIECBAgAABAgQIECBAgAABAgQIECBAgAABAgQIECBAgAABAgQIECBAgAABAgQIECBAgAABAgQItEDgf7DcTusL+DmcAAAAAElFTkSuQmCC;" parent="Ln4_qjFezgvtbFoJ6TMg-31" vertex="1">
          <mxGeometry x="15" y="20" width="80" height="80" as="geometry" />
        </mxCell>
        <mxCell id="Ln4_qjFezgvtbFoJ6TMg-36" value="" style="group" parent="iqprVtGjsiEywVP_pwhM-3" vertex="1" connectable="0">
          <mxGeometry x="170" y="210" width="110" height="100" as="geometry" />
        </mxCell>
        <mxCell id="Ln4_qjFezgvtbFoJ6TMg-37" value="" style="rounded=0;whiteSpace=wrap;html=1;" parent="Ln4_qjFezgvtbFoJ6TMg-36" vertex="1">
          <mxGeometry y="30" width="110" height="60" as="geometry" />
        </mxCell>
        <mxCell id="Ln4_qjFezgvtbFoJ6TMg-38" value="Application" style="rounded=0;whiteSpace=wrap;html=1;fillColor=#000000;fontColor=#FFFFFF;fontSize=16;" parent="Ln4_qjFezgvtbFoJ6TMg-36" vertex="1">
          <mxGeometry width="110" height="30" as="geometry" />
        </mxCell>
        <mxCell id="Ln4_qjFezgvtbFoJ6TMg-39" value="" style="rounded=0;whiteSpace=wrap;html=1;fillColor=#595959;fontColor=#FFFFFF;align=left;verticalAlign=top;" parent="Ln4_qjFezgvtbFoJ6TMg-36" vertex="1">
          <mxGeometry x="10" y="40" width="90" height="40" as="geometry" />
        </mxCell>
        <mxCell id="Ln4_qjFezgvtbFoJ6TMg-40" value="" style="shape=image;verticalLabelPosition=bottom;labelBackgroundColor=default;verticalAlign=top;aspect=fixed;imageAspect=0;image=data:image/png,iVBORw0KGgoAAAANSUhEUgAAAVkAAAFZCAYAAAAy8lzbAAAAAXNSR0IArs4c6QAAAIRlWElmTU0AKgAAAAgABQESAAMAAAABAAEAAAEaAAUAAAABAAAASgEbAAUAAAABAAAAUgEoAAMAAAABAAIAAIdpAAQAAAABAAAAWgAAAAAAAADcAAAAAQAAANwAAAABAAOgAQADAAAAAQABAACgAgAEAAAAAQAAAVmgAwAEAAAAAQAAAVkAAAAAwupN1QAAAAlwSFlzAAAh1QAAIdUBBJy0nQAAEK9JREFUeAHt3UusJFUZB/DqvnceMC8QDAFnYWJAERCDxmBEAzJG4kYWYEhUlpgoGhNYuJM9MTFBUGOEwEJAI4iJCx6jGzUhKBvUIJiYyAQl8hxmGO70y/+5cOdxc53pvpnqW9X9q8m5VV1dVec7v9Pn6+rqnu6qMhEgQIAAAQIECBAgQIAAAQIECBAgQIAAAQIECBAgQIAAAQIECBAgQIAAAQIECBAgQIAAAQIECBAgQIAAAQIECBAgQIAAAQIECBAgQIAAAQIECBAgQIAAAQIECBAgQIAAAQIECBAgQIAAAQIECBAgQIAAAQIECBAgQIAAAQIECBAgQIAAAQIECBAgQIAAAQIECBAgQIAAAQIECBAgQIAAAQIECBAgQIAAAQIECBAgQIAAAQIECBAgQIAAAQIECBAgQIAAAQIECBAgQIAAAQIECBAgQIAAAQIECBAgQIAAAQIECBAgQIAAAQIECBAgQIAAAQIECBAgQIAAAQIECBAgQIAAAQIECBAgQIAAAQIECBAgQIAAAQIECBAgQIAAAQIECBAgQIAAAQIECBAgQIAAAQIECBAgQIAAAQIECBAgQIAAAQIECBAgQIAAAQIECBAgQIAAAQIECBAgQIAAAQIECBAgQIAAAQIECBAgQIAAAQIECBAgQIAAAQIECBAgQIAAAQIECBAgQIAAAQIECBAgQIAAAQIECBAgQIAAAQIECBAgQIAAAQIECBAgQIAAAQIECBAgQIAAAQIECBAgQIAAAQIECBAgQIAAAQIECBAgQIAAAQIECBAgQIAAAQIECBAgQIAAAQIECBAgQIAAAQIECBAgQIAAAQIECBAgQIAAAQIECBAgQIAAAQIECBAgQIAAAQIECBAgQIAAAQIECBAgQIAAAQIECBAgQIAAAQIECBAgQIAAAQIECBAgQIAAAQIECBAgQIAAAQIECBAgQIAAAQIECBAgQIAAAQIECBAgQIAAAQIECBAgQIAAAQIECBAgQIAAAQIECBAgQIAAAQIECBAgQIAAAQIECBAgQIAAAQIECBAgQIAAAQIECBAgQIAAAQIECBAgQIAAAQIECBAgQIAAAQIECBAgQIAAAQIECBAgQIAAAQIECBAgQIAAAQIECBAgQIAAAQIECBAgQIAAAQIECBAgQIAAAQIECBAgQIAAAQIECBAgQIAAAQIECBAgQIAAAQIECBAgQIAAAQIECBAgQIAAAQIECBAgQIAAAQIECBAgQIAAAQIECBAgQIAAAQIECBAgQIAAAQIECBAgQIAAAQIECBAgQIAAAQKNERiNRp3GBDPlQOa57VOmnrnqGjlorv95tfD2jvM+WVWdizqdznBS9fcMe9VHB29Xg2ph0l2rrdnr4v5SZzDhniXI07PvJb1e1Ztw32pUdXsL1YF/VluevPy6pecn3X2a2yfZXJD69qQsTbPeDaxrS+rem8fh3zcwhpNWnX45Nxt9OmVXysRj5qQVNG+Dbr/ff25xcfEP6Zt+88I7GtHi0cUGLe3evbnzWvW1rWcvfGXUH40dWNmyPGtsHS5U2/sL1WDCp5Cy/2mjbrUrXdZfPtLYVSdPVtX27Lt90uxcquhW1cv7O4c61fBbudXoJJv4rk65M2WeppvT2EYn2cR3ScpdKWelzMW0sLDwUBr6pxRJduIe35dkua1zsPfmsBpOkGRLPSWvLo2G1VvZb9J8VxLlcDSq9g/Wv++BVDppvYtJspleT45uw9lhG2JcBj2Ff9rQ5vIC6vWUuUmyOXs/mLPYMmwbPb0zvBsdouAIECDQXgFJtr19J3ICBFog0Mxrsi2AE+JRgbxsq/KybX/mb2Q+4ZXwo8fZyKXEXl52ljeNdra0CWvypVmvpD2H1ryzJStL36QN70u4rTwplGRb8kBrcpgZAGUc/Dbz+xLn6U2O9f/FltjfGgwGX82bKddmm1Y+UazVtvTLfcPh8M/lvrRtrU0avy7xv53Y706gOxsf7BoBzmaSbfyl8DV6ouWrMpif7na7D7e5Gb1e76K049ok3DY347jY0yePpj2PHreyhTfSL+UTLa1Msq08/T7RY6Tk197yIJFpT+RUw32bazjmVA+ZhLRpqhVOp7Kt06mm9lpa+8w3k0l2qdOdndd7tT92VUCAQJ0CM5dkC1bzPzlXZ5c6NgECTRKYySTbJGCxECAw3wKS7Hz3v9YTIFCzgCRbM7DDEyAw3wKS7Hz3v9YTIFCzgCRbM7DDEyAw3wKS7Hz3v9YTIFCzgCRbM7DDEyAw3wKS7Hz3v9YTIFCzgCRbM7DDEyAw3wKS7Hz3v9YTIFCzgCRbM7DDEyAw3wKS7Hz3v9YTIFCzgCRbM3CbDp/v7Gzt18m1yXmcWNMXs/IVheM0d6a3kWRnuntP3rgM5o/kFwG+m/ml+XLn5S/hzbJke3K6urc4O/1wc75IfE/dFTl+vQKSbL2+jT96EuyH82XVtyXQOzOob0w5ZyXZNj742Q6wnMnekp9duSuJ9valpaUPzXZzZ7d1kmxj+jYnkaPhRvycw9vvEnwq85+k3JFEe12Kx8bRx8bw6OLUlnqp6b95wjt/cXHx1k2bNt2RJ8Rb0y9nTS0CFZ0Sgdn8ja9TQjPtg+QVeqebP4MNqPhIleUnZK5P+Wx+vO4zOYN6JIN7b7k3gzvjfW6/Dn172l/GyvZiMYWpnzrOTDnyczix31NK1n0ssTyU+UO5PfUHS+o1TSggyU4IVsfmw5wndTbt3HHu+d++YTS67ZLUMa1+6WfArn4ZWs6mz8olhG9mEH8+99+V249n+W91tL0lx/xS4rw45UjSqznucuZcfjRw9xr13JB1V+VJcE/65t70yx+P2ca19GMwmrI4rcHclPY2Mo5ykaCzsG37zjMu/EICLGVqUwbp6rqOrMh9F+TO76f8rt/v35Prgw9kef/qHWb8dnnSKZdSSmnCVOI5J0+CN2X+8VxC2Jvl72W5XPZxZhuEpk2SbEN6ZFQNR73+4TJImtgnVyXBXp6zp2uSeM9cIzE3RLGWMI486dRy9MkPuhJPSbaXJcFelvml6Zt/ZXnX5IezR90C3tyoW3h2jn9akuv7U8r1QlOzBFYSb7OiEs2ygCTbmAdCp7PQXWzSWWw5U1qZ/pGF7yTBfjnze1ZWzsn8WIcmNHklnpJYn84Z7O0HDx68MWexd+f2G00IUAzHCzRpUB8f2RzdWr4sOlw6tHTwxb+k2S+kLEyp+YO8ebI7yfMTa9RXBvFrGcQPpDycTxk8XrbJ9levse0sryoO5c2lv6ZM842vXbG+Mn2z+iNbJZ6XUh5JuTeXcZbf+Mq2F+b2tB43qco0roAkO65Ujdt183pi1Nv/5qsv/Oz+cz94y/2p6rQaqzv20IcyiL+YFauTbLkk8OuUB3OG9KsM5MPH7LRyJnXMqplffDAt/GHKtD7ClU/P9c7PE9sHUufqJPtA3ux6OH3yy/Td6je65rFvGv/gk2Qb0EXl1KQa9fv7X376pQyc/0wzpHxq4N8ZsEeqzBnRU4nhrqx4LPMXj9wx3wsHYtELwWvTYkg/vJq6Sp0r0xN5RfFonvTuyX9OeGVlpXnzBSTZxvRRp9PdvJhsd+y4mkpwW96tZV/mP0rSfWzz5s1PlXUZ6Mktc/sfEN5lWZ5txHsX5dLEe1OeT3J9JP3y0y1btjx7bFCW2yEgybajn2qLMmexL2QQ35szpF8kof6mVLSSXCXY2tjHOXD53Gv5/Ouz6aMnxtnBNs0UkGSb2S/TjOqZJNjyv7veXKlUcl2R2ND5y+mHH2xoBCo/JQKS7ClhbO9BMpAPtjf62Y08/VLOZE0zILAR15pmgE0TCBAgMJ6AJDuek60IECCwLgFJdl1sdiJAgMB4ApLseE62IkCAwLoEJNl1sdmJAAEC4wlIsuM52YoAAQLrEpBk18VmJwIECIwnIMmO52QrAgQIrEtAkl0Xm50IECAwnoAkO56TrQgQILAuAUl2XWx2IkCAwHgCkux4TrYiQIDAugQk2XWx2YkAAQLjCUiy4znZigABAusSkGTXxWanNQRm4av5ZqENq7tmVr7Kcri6YW257ftk29JTDY8zv6ZwTX78L9//3V35OZuGR3x8ePl1iKW04XOJ//g7Wn4rbbop/XJlaUaL21Z+yHNHaUMbJ0m2jb3WvJg7GcBX5Iumr2heaONFVBJQEtJySTvG26kFW6Ut1+eHF1sQ6eyGSH92+3aqLZuFxDQLbZhqp6tsLIHZem00VpNtRIAAgekJSLLTs1YTAQJzKNDMywW787PUr422bdqxUI36o4m6pWy9OdfWTu91q/6El9bKvqflz87s2K8m27nsu33UqbYPJgr3nY3zVHdof3VGZ1i14U2jNsS4jk444S5taPOmtOCME7Zixu7M5Z1tadJkA3UDDJqZZPftOzzacd6Pl14d/X7USeqZcOpWg+rA4UF2XJhwz6oa5t8bSZSDqqTN8acSZC/7HuiV+YTTqOoOF0YHMntywj03YvO9qfQbKUsbUfkG1FkSbGlz06dnEuDXU3alTDxmmt64NeLrDgaD5/Km3rw8DtcgsGrmBPLue+PPGupCn+e212XquAQIECBAgAABAgQIECBAgAABAgQIECBAgAABAgQIECBAgAABAgQIECBAgAABAgQIECBAgAABAgQIECBAgAABAgQIECBAgAABAgQIECBAgAABAgQIECBAgAABAgQIECBAgAABAgQIECBAgAABAgQIECBAgAABAgQIECBAgAABAgQIECBAgAABAgQIECBAgAABAgQIECBAgAABAgQIECBAgAABAgQIECBAgAABAgQIECBAgAABAgQIECBAgAABAgQIECBAgAABAgQIECBAgAABAgQIECBAgAABAgQIECBAgAABAgQIECBAgAABAgQIECBAgAABAgQIECBAgAABAgQIECBAgAABAgQIECBAgAABAgQIECBAgAABAgQIECBAgAABAgQIECBAgAABAgQIECBAgAABAgQIECBAgAABAgQIECBAgAABAgQIECBAgAABAgQIECBAgAABAgQIECBAgAABAgQIECBAgAABAgQIECBAgAABAgQIECBAgAABAgQIECBAgAABAgQIECBAgAABAgQIECBAgAABAgQIECBAgAABAgQIECBAgAABAgQIECBAgAABAgQIECBAgAABAgQIECBAgAABAgQIECBAgAABAgQIECBAgAABAgQIECBAgAABAgQIECBAgAABAgQIECBAgAABAgQIECBAgAABAgQIECBAgAABAgQIECBAgAABAgQIECBAgAABAgQIECBAgAABAgQIECBAgAABAgQIECBAgAABAgQIECBAgAABAgQIECBAgAABAgQIECBAgAABAgQIECBAgAABAgQIECBAgAABAgQIECBAgAABAgQIECBAgAABAgQIECBAgAABAgQIECBAgAABAgQIECBAgAABAgQIECBAgAABAgQIECBAgAABAgQIECBAgAABAgQIECBAgAABAgQIECBAgAABAgQIECBAgAABAgQIECBAgAABAgQIECBAgAABAgQIECBAgAABAgQIECBAgAABAgQIECBAgAABAgQIECBAgAABAgQIECBAgAABAgQIECBAgAABAgQIECBAgAABAgQIECBAgAABAgQIECBAgAABAgQIECBAgAABAgQIECBAgAABAgQIECBAgAABAgQIECBAgAABAgQIECBAgAABAgQItEDgf7DcTusL+DmcAAAAAElFTkSuQmCC;" parent="Ln4_qjFezgvtbFoJ6TMg-36" vertex="1">
          <mxGeometry x="15" y="20" width="80" height="80" as="geometry" />
        </mxCell>
        <mxCell id="Ln4_qjFezgvtbFoJ6TMg-58" value="Partner 1" style="rounded=0;whiteSpace=wrap;html=1;verticalAlign=bottom;dashed=1;fillColor=none;" parent="iqprVtGjsiEywVP_pwhM-3" vertex="1">
          <mxGeometry x="5" y="203" width="120" height="128" as="geometry" />
        </mxCell>
        <mxCell id="Ln4_qjFezgvtbFoJ6TMg-59" value="Partner 2" style="rounded=0;whiteSpace=wrap;html=1;verticalAlign=bottom;dashed=1;fillColor=none;" parent="iqprVtGjsiEywVP_pwhM-3" vertex="1">
          <mxGeometry x="165" y="203" width="120" height="128" as="geometry" />
        </mxCell>
        <mxCell id="Ln4_qjFezgvtbFoJ6TMg-60" style="edgeStyle=none;rounded=0;orthogonalLoop=1;jettySize=auto;html=1;exitX=0;exitY=0.25;exitDx=0;exitDy=0;startArrow=oval;startFill=1;endArrow=block;endFill=1;strokeWidth=5;strokeColor=#4fb81c;entryX=1;entryY=0.5;entryDx=0;entryDy=0;" parent="iqprVtGjsiEywVP_pwhM-3" source="Ln4_qjFezgvtbFoJ6TMg-39" edge="1">
          <mxGeometry relative="1" as="geometry">
            <mxPoint x="170" y="259.5" as="sourcePoint" />
            <mxPoint x="110" y="259.5" as="targetPoint" />
          </mxGeometry>
        </mxCell>
        <mxCell id="Ln4_qjFezgvtbFoJ6TMg-61" style="edgeStyle=none;rounded=0;orthogonalLoop=1;jettySize=auto;html=1;exitX=1;exitY=0.75;exitDx=0;exitDy=0;startArrow=oval;startFill=1;endArrow=block;endFill=1;strokeWidth=5;strokeColor=#4fb81c;entryX=0;entryY=0.75;entryDx=0;entryDy=0;" parent="iqprVtGjsiEywVP_pwhM-3" source="Ln4_qjFezgvtbFoJ6TMg-34" target="Ln4_qjFezgvtbFoJ6TMg-39" edge="1">
          <mxGeometry relative="1" as="geometry">
            <mxPoint x="360" y="361" as="sourcePoint" />
            <mxPoint x="150" y="280" as="targetPoint" />
          </mxGeometry>
        </mxCell>
        <mxCell id="Ln4_qjFezgvtbFoJ6TMg-68" value="&lt;div style=&quot;font-size: 14px;&quot;&gt;&lt;div&gt;&lt;u&gt;Example&lt;/u&gt;: Design-to-operate process with integration of a manufacturer with suppliers: exchange of purchase orders using B2B standards like ANSI X.12 or UN/EDIFACT.&lt;/div&gt;&lt;div&gt;&lt;br&gt;&lt;/div&gt;&lt;/div&gt;" style="rounded=0;whiteSpace=wrap;html=1;fontColor=#000000;fillColor=#D9EDCB;strokeColor=#D9EDCB;align=left;verticalAlign=top;fontSize=14;" parent="iqprVtGjsiEywVP_pwhM-3" vertex="1">
          <mxGeometry y="400" width="290" height="100" as="geometry" />
        </mxCell>
        <mxCell id="iqprVtGjsiEywVP_pwhM-4" value="" style="group" vertex="1" connectable="0" parent="1">
          <mxGeometry x="1000" y="40" width="290" height="500" as="geometry" />
        </mxCell>
        <mxCell id="Ln4_qjFezgvtbFoJ6TMg-5" value="&lt;font style=&quot;font-size: 16px;&quot;&gt;B2G Integration&lt;/font&gt;" style="rounded=0;whiteSpace=wrap;html=1;fontColor=#FFFFFF;fillColor=#4FB81C;strokeColor=#4FB81C;fontSize=16;shadow=1;" parent="iqprVtGjsiEywVP_pwhM-4" vertex="1">
          <mxGeometry width="290" height="60" as="geometry" />
        </mxCell>
        <mxCell id="Ln4_qjFezgvtbFoJ6TMg-41" value="&lt;div style=&quot;font-size: 16px;&quot;&gt;&lt;div&gt;&lt;font color=&quot;#000000&quot;&gt;Transform transactional data into predefined exchange formats and transfer it electronically to external legal or tax authority systems.&lt;/font&gt;&lt;/div&gt;&lt;div&gt;&lt;br&gt;&lt;/div&gt;&lt;/div&gt;" style="rounded=0;whiteSpace=wrap;html=1;fontColor=#FFFFFF;fillColor=#FFFFFF;strokeColor=#4FB81C;fontSize=16;shadow=1;align=center;verticalAlign=top;" parent="iqprVtGjsiEywVP_pwhM-4" vertex="1">
          <mxGeometry y="60" width="290" height="320" as="geometry" />
        </mxCell>
        <mxCell id="Ln4_qjFezgvtbFoJ6TMg-42" value="" style="group" parent="iqprVtGjsiEywVP_pwhM-4" vertex="1" connectable="0">
          <mxGeometry x="10" y="210" width="110" height="100" as="geometry" />
        </mxCell>
        <mxCell id="Ln4_qjFezgvtbFoJ6TMg-43" value="" style="rounded=0;whiteSpace=wrap;html=1;" parent="Ln4_qjFezgvtbFoJ6TMg-42" vertex="1">
          <mxGeometry y="30" width="110" height="60" as="geometry" />
        </mxCell>
        <mxCell id="Ln4_qjFezgvtbFoJ6TMg-44" value="Application" style="rounded=0;whiteSpace=wrap;html=1;fillColor=#000000;fontColor=#FFFFFF;fontSize=16;" parent="Ln4_qjFezgvtbFoJ6TMg-42" vertex="1">
          <mxGeometry width="110" height="30" as="geometry" />
        </mxCell>
        <mxCell id="Ln4_qjFezgvtbFoJ6TMg-45" value="" style="rounded=0;whiteSpace=wrap;html=1;fillColor=#595959;fontColor=#FFFFFF;align=left;verticalAlign=top;" parent="Ln4_qjFezgvtbFoJ6TMg-42" vertex="1">
          <mxGeometry x="10" y="40" width="90" height="40" as="geometry" />
        </mxCell>
        <mxCell id="Ln4_qjFezgvtbFoJ6TMg-46" value="" style="shape=image;verticalLabelPosition=bottom;labelBackgroundColor=default;verticalAlign=top;aspect=fixed;imageAspect=0;image=data:image/png,iVBORw0KGgoAAAANSUhEUgAAAVkAAAFZCAYAAAAy8lzbAAAAAXNSR0IArs4c6QAAAIRlWElmTU0AKgAAAAgABQESAAMAAAABAAEAAAEaAAUAAAABAAAASgEbAAUAAAABAAAAUgEoAAMAAAABAAIAAIdpAAQAAAABAAAAWgAAAAAAAADcAAAAAQAAANwAAAABAAOgAQADAAAAAQABAACgAgAEAAAAAQAAAVmgAwAEAAAAAQAAAVkAAAAAwupN1QAAAAlwSFlzAAAh1QAAIdUBBJy0nQAAEK9JREFUeAHt3UusJFUZB/DqvnceMC8QDAFnYWJAERCDxmBEAzJG4kYWYEhUlpgoGhNYuJM9MTFBUGOEwEJAI4iJCx6jGzUhKBvUIJiYyAQl8hxmGO70y/+5cOdxc53pvpnqW9X9q8m5VV1dVec7v9Pn6+rqnu6qMhEgQIAAAQIECBAgQIAAAQIECBAgQIAAAQIECBAgQIAAAQIECBAgQIAAAQIECBAgQIAAAQIECBAgQIAAAQIECBAgQIAAAQIECBAgQIAAAQIECBAgQIAAAQIECBAgQIAAAQIECBAgQIAAAQIECBAgQIAAAQIECBAgQIAAAQIECBAgQIAAAQIECBAgQIAAAQIECBAgQIAAAQIECBAgQIAAAQIECBAgQIAAAQIECBAgQIAAAQIECBAgQIAAAQIECBAgQIAAAQIECBAgQIAAAQIECBAgQIAAAQIECBAgQIAAAQIECBAgQIAAAQIECBAgQIAAAQIECBAgQIAAAQIECBAgQIAAAQIECBAgQIAAAQIECBAgQIAAAQIECBAgQIAAAQIECBAgQIAAAQIECBAgQIAAAQIECBAgQIAAAQIECBAgQIAAAQIECBAgQIAAAQIECBAgQIAAAQIECBAgQIAAAQIECBAgQIAAAQIECBAgQIAAAQIECBAgQIAAAQIECBAgQIAAAQIECBAgQIAAAQIECBAgQIAAAQIECBAgQIAAAQIECBAgQIAAAQIECBAgQIAAAQIECBAgQIAAAQIECBAgQIAAAQIECBAgQIAAAQIECBAgQIAAAQIECBAgQIAAAQIECBAgQIAAAQIECBAgQIAAAQIECBAgQIAAAQIECBAgQIAAAQIECBAgQIAAAQIECBAgQIAAAQIECBAgQIAAAQIECBAgQIAAAQIECBAgQIAAAQIECBAgQIAAAQIECBAgQIAAAQIECBAgQIAAAQIECBAgQIAAAQIECBAgQIAAAQIECBAgQIAAAQIECBAgQIAAAQIECBAgQIAAAQIECBAgQIAAAQIECBAgQIAAAQIECBAgQIAAAQIECBAgQIAAAQIECBAgQIAAAQIECBAgQIAAAQIECBAgQIAAAQIECBAgQIAAAQIECBAgQIAAAQIECBAgQIAAAQIECBAgQIAAAQIECBAgQIAAAQIECBAgQIAAAQIECBAgQIAAAQIECBAgQIAAAQIECBAgQIAAAQIECBAgQIAAAQIECBAgQIAAAQIECBAgQIAAAQIECBAgQIAAAQIECBAgQIAAAQIECBAgQIAAAQIECBAgQIAAAQIECBAgQIAAAQKNERiNRp3GBDPlQOa57VOmnrnqGjlorv95tfD2jvM+WVWdizqdznBS9fcMe9VHB29Xg2ph0l2rrdnr4v5SZzDhniXI07PvJb1e1Ztw32pUdXsL1YF/VluevPy6pecn3X2a2yfZXJD69qQsTbPeDaxrS+rem8fh3zcwhpNWnX45Nxt9OmVXysRj5qQVNG+Dbr/ff25xcfEP6Zt+88I7GtHi0cUGLe3evbnzWvW1rWcvfGXUH40dWNmyPGtsHS5U2/sL1WDCp5Cy/2mjbrUrXdZfPtLYVSdPVtX27Lt90uxcquhW1cv7O4c61fBbudXoJJv4rk65M2WeppvT2EYn2cR3ScpdKWelzMW0sLDwUBr6pxRJduIe35dkua1zsPfmsBpOkGRLPSWvLo2G1VvZb9J8VxLlcDSq9g/Wv++BVDppvYtJspleT45uw9lhG2JcBj2Ff9rQ5vIC6vWUuUmyOXs/mLPYMmwbPb0zvBsdouAIECDQXgFJtr19J3ICBFog0Mxrsi2AE+JRgbxsq/KybX/mb2Q+4ZXwo8fZyKXEXl52ljeNdra0CWvypVmvpD2H1ryzJStL36QN70u4rTwplGRb8kBrcpgZAGUc/Dbz+xLn6U2O9f/FltjfGgwGX82bKddmm1Y+UazVtvTLfcPh8M/lvrRtrU0avy7xv53Y706gOxsf7BoBzmaSbfyl8DV6ouWrMpif7na7D7e5Gb1e76K049ok3DY347jY0yePpj2PHreyhTfSL+UTLa1Msq08/T7RY6Tk197yIJFpT+RUw32bazjmVA+ZhLRpqhVOp7Kt06mm9lpa+8w3k0l2qdOdndd7tT92VUCAQJ0CM5dkC1bzPzlXZ5c6NgECTRKYySTbJGCxECAw3wKS7Hz3v9YTIFCzgCRbM7DDEyAw3wKS7Hz3v9YTIFCzgCRbM7DDEyAw3wKS7Hz3v9YTIFCzgCRbM7DDEyAw3wKS7Hz3v9YTIFCzgCRbM7DDEyAw3wKS7Hz3v9YTIFCzgCRbM7DDEyAw3wKS7Hz3v9YTIFCzgCRbM3CbDp/v7Gzt18m1yXmcWNMXs/IVheM0d6a3kWRnuntP3rgM5o/kFwG+m/ml+XLn5S/hzbJke3K6urc4O/1wc75IfE/dFTl+vQKSbL2+jT96EuyH82XVtyXQOzOob0w5ZyXZNj742Q6wnMnekp9duSuJ9valpaUPzXZzZ7d1kmxj+jYnkaPhRvycw9vvEnwq85+k3JFEe12Kx8bRx8bw6OLUlnqp6b95wjt/cXHx1k2bNt2RJ8Rb0y9nTS0CFZ0Sgdn8ja9TQjPtg+QVeqebP4MNqPhIleUnZK5P+Wx+vO4zOYN6JIN7b7k3gzvjfW6/Dn172l/GyvZiMYWpnzrOTDnyczix31NK1n0ssTyU+UO5PfUHS+o1TSggyU4IVsfmw5wndTbt3HHu+d++YTS67ZLUMa1+6WfArn4ZWs6mz8olhG9mEH8+99+V249n+W91tL0lx/xS4rw45UjSqznucuZcfjRw9xr13JB1V+VJcE/65t70yx+P2ca19GMwmrI4rcHclPY2Mo5ykaCzsG37zjMu/EICLGVqUwbp6rqOrMh9F+TO76f8rt/v35Prgw9kef/qHWb8dnnSKZdSSmnCVOI5J0+CN2X+8VxC2Jvl72W5XPZxZhuEpk2SbEN6ZFQNR73+4TJImtgnVyXBXp6zp2uSeM9cIzE3RLGWMI486dRy9MkPuhJPSbaXJcFelvml6Zt/ZXnX5IezR90C3tyoW3h2jn9akuv7U8r1QlOzBFYSb7OiEs2ygCTbmAdCp7PQXWzSWWw5U1qZ/pGF7yTBfjnze1ZWzsn8WIcmNHklnpJYn84Z7O0HDx68MWexd+f2G00IUAzHCzRpUB8f2RzdWr4sOlw6tHTwxb+k2S+kLEyp+YO8ebI7yfMTa9RXBvFrGcQPpDycTxk8XrbJ9levse0sryoO5c2lv6ZM842vXbG+Mn2z+iNbJZ6XUh5JuTeXcZbf+Mq2F+b2tB43qco0roAkO65Ujdt183pi1Nv/5qsv/Oz+cz94y/2p6rQaqzv20IcyiL+YFauTbLkk8OuUB3OG9KsM5MPH7LRyJnXMqplffDAt/GHKtD7ClU/P9c7PE9sHUufqJPtA3ux6OH3yy/Td6je65rFvGv/gk2Qb0EXl1KQa9fv7X376pQyc/0wzpHxq4N8ZsEeqzBnRU4nhrqx4LPMXj9wx3wsHYtELwWvTYkg/vJq6Sp0r0xN5RfFonvTuyX9OeGVlpXnzBSTZxvRRp9PdvJhsd+y4mkpwW96tZV/mP0rSfWzz5s1PlXUZ6Mktc/sfEN5lWZ5txHsX5dLEe1OeT3J9JP3y0y1btjx7bFCW2yEgybajn2qLMmexL2QQ35szpF8kof6mVLSSXCXY2tjHOXD53Gv5/Ouz6aMnxtnBNs0UkGSb2S/TjOqZJNjyv7veXKlUcl2R2ND5y+mHH2xoBCo/JQKS7ClhbO9BMpAPtjf62Y08/VLOZE0zILAR15pmgE0TCBAgMJ6AJDuek60IECCwLgFJdl1sdiJAgMB4ApLseE62IkCAwLoEJNl1sdmJAAEC4wlIsuM52YoAAQLrEpBk18VmJwIECIwnIMmO52QrAgQIrEtAkl0Xm50IECAwnoAkO56TrQgQILAuAUl2XWx2IkCAwHgCkux4TrYiQIDAugQk2XWx2YkAAQLjCUiy4znZigABAusSkGTXxWanNQRm4av5ZqENq7tmVr7Kcri6YW257ftk29JTDY8zv6ZwTX78L9//3V35OZuGR3x8ePl1iKW04XOJ//g7Wn4rbbop/XJlaUaL21Z+yHNHaUMbJ0m2jb3WvJg7GcBX5Iumr2heaONFVBJQEtJySTvG26kFW6Ut1+eHF1sQ6eyGSH92+3aqLZuFxDQLbZhqp6tsLIHZem00VpNtRIAAgekJSLLTs1YTAQJzKNDMywW787PUr422bdqxUI36o4m6pWy9OdfWTu91q/6El9bKvqflz87s2K8m27nsu33UqbYPJgr3nY3zVHdof3VGZ1i14U2jNsS4jk444S5taPOmtOCME7Zixu7M5Z1tadJkA3UDDJqZZPftOzzacd6Pl14d/X7USeqZcOpWg+rA4UF2XJhwz6oa5t8bSZSDqqTN8acSZC/7HuiV+YTTqOoOF0YHMntywj03YvO9qfQbKUsbUfkG1FkSbGlz06dnEuDXU3alTDxmmt64NeLrDgaD5/Km3rw8DtcgsGrmBPLue+PPGupCn+e212XquAQIECBAgAABAgQIECBAgAABAgQIECBAgAABAgQIECBAgAABAgQIECBAgAABAgQIECBAgAABAgQIECBAgAABAgQIECBAgAABAgQIECBAgAABAgQIECBAgAABAgQIECBAgAABAgQIECBAgAABAgQIECBAgAABAgQIECBAgAABAgQIECBAgAABAgQIECBAgAABAgQIECBAgAABAgQIECBAgAABAgQIECBAgAABAgQIECBAgAABAgQIECBAgAABAgQIECBAgAABAgQIECBAgAABAgQIECBAgAABAgQIECBAgAABAgQIECBAgAABAgQIECBAgAABAgQIECBAgAABAgQIECBAgAABAgQIECBAgAABAgQIECBAgAABAgQIECBAgAABAgQIECBAgAABAgQIECBAgAABAgQIECBAgAABAgQIECBAgAABAgQIECBAgAABAgQIECBAgAABAgQIECBAgAABAgQIECBAgAABAgQIECBAgAABAgQIECBAgAABAgQIECBAgAABAgQIECBAgAABAgQIECBAgAABAgQIECBAgAABAgQIECBAgAABAgQIECBAgAABAgQIECBAgAABAgQIECBAgAABAgQIECBAgAABAgQIECBAgAABAgQIECBAgAABAgQIECBAgAABAgQIECBAgAABAgQIECBAgAABAgQIECBAgAABAgQIECBAgAABAgQIECBAgAABAgQIECBAgAABAgQIECBAgAABAgQIECBAgAABAgQIECBAgAABAgQIECBAgAABAgQIECBAgAABAgQIECBAgAABAgQIECBAgAABAgQIECBAgAABAgQIECBAgAABAgQIECBAgAABAgQIECBAgAABAgQIECBAgAABAgQIECBAgAABAgQIECBAgAABAgQIECBAgAABAgQIECBAgAABAgQIECBAgAABAgQIECBAgAABAgQIECBAgAABAgQIECBAgAABAgQIECBAgAABAgQIECBAgAABAgQIECBAgAABAgQIECBAgAABAgQIECBAgAABAgQIECBAgAABAgQIECBAgAABAgQIECBAgAABAgQIECBAgAABAgQIECBAgAABAgQIECBAgAABAgQIECBAgAABAgQIECBAgAABAgQIECBAgAABAgQItEDgf7DcTusL+DmcAAAAAElFTkSuQmCC;" parent="Ln4_qjFezgvtbFoJ6TMg-42" vertex="1">
          <mxGeometry x="15" y="20" width="80" height="80" as="geometry" />
        </mxCell>
        <mxCell id="Ln4_qjFezgvtbFoJ6TMg-47" value="" style="group" parent="iqprVtGjsiEywVP_pwhM-4" vertex="1" connectable="0">
          <mxGeometry x="170" y="210" width="110" height="100" as="geometry" />
        </mxCell>
        <mxCell id="Ln4_qjFezgvtbFoJ6TMg-48" value="" style="rounded=0;whiteSpace=wrap;html=1;" parent="Ln4_qjFezgvtbFoJ6TMg-47" vertex="1">
          <mxGeometry y="30" width="110" height="60" as="geometry" />
        </mxCell>
        <mxCell id="Ln4_qjFezgvtbFoJ6TMg-49" value="Application" style="rounded=0;whiteSpace=wrap;html=1;fillColor=#000000;fontColor=#FFFFFF;fontSize=16;" parent="Ln4_qjFezgvtbFoJ6TMg-47" vertex="1">
          <mxGeometry width="110" height="30" as="geometry" />
        </mxCell>
        <mxCell id="Ln4_qjFezgvtbFoJ6TMg-50" value="" style="rounded=0;whiteSpace=wrap;html=1;fillColor=#595959;fontColor=#FFFFFF;align=left;verticalAlign=top;" parent="Ln4_qjFezgvtbFoJ6TMg-47" vertex="1">
          <mxGeometry x="10" y="40" width="90" height="40" as="geometry" />
        </mxCell>
        <mxCell id="Ln4_qjFezgvtbFoJ6TMg-51" value="" style="shape=image;verticalLabelPosition=bottom;labelBackgroundColor=default;verticalAlign=top;aspect=fixed;imageAspect=0;image=data:image/png,iVBORw0KGgoAAAANSUhEUgAAAVkAAAFZCAYAAAAy8lzbAAAAAXNSR0IArs4c6QAAAIRlWElmTU0AKgAAAAgABQESAAMAAAABAAEAAAEaAAUAAAABAAAASgEbAAUAAAABAAAAUgEoAAMAAAABAAIAAIdpAAQAAAABAAAAWgAAAAAAAADcAAAAAQAAANwAAAABAAOgAQADAAAAAQABAACgAgAEAAAAAQAAAVmgAwAEAAAAAQAAAVkAAAAAwupN1QAAAAlwSFlzAAAh1QAAIdUBBJy0nQAAEK9JREFUeAHt3UusJFUZB/DqvnceMC8QDAFnYWJAERCDxmBEAzJG4kYWYEhUlpgoGhNYuJM9MTFBUGOEwEJAI4iJCx6jGzUhKBvUIJiYyAQl8hxmGO70y/+5cOdxc53pvpnqW9X9q8m5VV1dVec7v9Pn6+rqnu6qMhEgQIAAAQIECBAgQIAAAQIECBAgQIAAAQIECBAgQIAAAQIECBAgQIAAAQIECBAgQIAAAQIECBAgQIAAAQIECBAgQIAAAQIECBAgQIAAAQIECBAgQIAAAQIECBAgQIAAAQIECBAgQIAAAQIECBAgQIAAAQIECBAgQIAAAQIECBAgQIAAAQIECBAgQIAAAQIECBAgQIAAAQIECBAgQIAAAQIECBAgQIAAAQIECBAgQIAAAQIECBAgQIAAAQIECBAgQIAAAQIECBAgQIAAAQIECBAgQIAAAQIECBAgQIAAAQIECBAgQIAAAQIECBAgQIAAAQIECBAgQIAAAQIECBAgQIAAAQIECBAgQIAAAQIECBAgQIAAAQIECBAgQIAAAQIECBAgQIAAAQIECBAgQIAAAQIECBAgQIAAAQIECBAgQIAAAQIECBAgQIAAAQIECBAgQIAAAQIECBAgQIAAAQIECBAgQIAAAQIECBAgQIAAAQIECBAgQIAAAQIECBAgQIAAAQIECBAgQIAAAQIECBAgQIAAAQIECBAgQIAAAQIECBAgQIAAAQIECBAgQIAAAQIECBAgQIAAAQIECBAgQIAAAQIECBAgQIAAAQIECBAgQIAAAQIECBAgQIAAAQIECBAgQIAAAQIECBAgQIAAAQIECBAgQIAAAQIECBAgQIAAAQIECBAgQIAAAQIECBAgQIAAAQIECBAgQIAAAQIECBAgQIAAAQIECBAgQIAAAQIECBAgQIAAAQIECBAgQIAAAQIECBAgQIAAAQIECBAgQIAAAQIECBAgQIAAAQIECBAgQIAAAQIECBAgQIAAAQIECBAgQIAAAQIECBAgQIAAAQIECBAgQIAAAQIECBAgQIAAAQIECBAgQIAAAQIECBAgQIAAAQIECBAgQIAAAQIECBAgQIAAAQIECBAgQIAAAQIECBAgQIAAAQIECBAgQIAAAQIECBAgQIAAAQIECBAgQIAAAQIECBAgQIAAAQIECBAgQIAAAQIECBAgQIAAAQIECBAgQIAAAQIECBAgQIAAAQIECBAgQIAAAQIECBAgQIAAAQIECBAgQIAAAQIECBAgQIAAAQIECBAgQIAAAQIECBAgQIAAAQIECBAgQIAAAQKNERiNRp3GBDPlQOa57VOmnrnqGjlorv95tfD2jvM+WVWdizqdznBS9fcMe9VHB29Xg2ph0l2rrdnr4v5SZzDhniXI07PvJb1e1Ztw32pUdXsL1YF/VluevPy6pecn3X2a2yfZXJD69qQsTbPeDaxrS+rem8fh3zcwhpNWnX45Nxt9OmVXysRj5qQVNG+Dbr/ff25xcfEP6Zt+88I7GtHi0cUGLe3evbnzWvW1rWcvfGXUH40dWNmyPGtsHS5U2/sL1WDCp5Cy/2mjbrUrXdZfPtLYVSdPVtX27Lt90uxcquhW1cv7O4c61fBbudXoJJv4rk65M2WeppvT2EYn2cR3ScpdKWelzMW0sLDwUBr6pxRJduIe35dkua1zsPfmsBpOkGRLPSWvLo2G1VvZb9J8VxLlcDSq9g/Wv++BVDppvYtJspleT45uw9lhG2JcBj2Ff9rQ5vIC6vWUuUmyOXs/mLPYMmwbPb0zvBsdouAIECDQXgFJtr19J3ICBFog0Mxrsi2AE+JRgbxsq/KybX/mb2Q+4ZXwo8fZyKXEXl52ljeNdra0CWvypVmvpD2H1ryzJStL36QN70u4rTwplGRb8kBrcpgZAGUc/Dbz+xLn6U2O9f/FltjfGgwGX82bKddmm1Y+UazVtvTLfcPh8M/lvrRtrU0avy7xv53Y706gOxsf7BoBzmaSbfyl8DV6ouWrMpif7na7D7e5Gb1e76K049ok3DY347jY0yePpj2PHreyhTfSL+UTLa1Msq08/T7RY6Tk197yIJFpT+RUw32bazjmVA+ZhLRpqhVOp7Kt06mm9lpa+8w3k0l2qdOdndd7tT92VUCAQJ0CM5dkC1bzPzlXZ5c6NgECTRKYySTbJGCxECAw3wKS7Hz3v9YTIFCzgCRbM7DDEyAw3wKS7Hz3v9YTIFCzgCRbM7DDEyAw3wKS7Hz3v9YTIFCzgCRbM7DDEyAw3wKS7Hz3v9YTIFCzgCRbM7DDEyAw3wKS7Hz3v9YTIFCzgCRbM7DDEyAw3wKS7Hz3v9YTIFCzgCRbM3CbDp/v7Gzt18m1yXmcWNMXs/IVheM0d6a3kWRnuntP3rgM5o/kFwG+m/ml+XLn5S/hzbJke3K6urc4O/1wc75IfE/dFTl+vQKSbL2+jT96EuyH82XVtyXQOzOob0w5ZyXZNj742Q6wnMnekp9duSuJ9valpaUPzXZzZ7d1kmxj+jYnkaPhRvycw9vvEnwq85+k3JFEe12Kx8bRx8bw6OLUlnqp6b95wjt/cXHx1k2bNt2RJ8Rb0y9nTS0CFZ0Sgdn8ja9TQjPtg+QVeqebP4MNqPhIleUnZK5P+Wx+vO4zOYN6JIN7b7k3gzvjfW6/Dn172l/GyvZiMYWpnzrOTDnyczix31NK1n0ssTyU+UO5PfUHS+o1TSggyU4IVsfmw5wndTbt3HHu+d++YTS67ZLUMa1+6WfArn4ZWs6mz8olhG9mEH8+99+V249n+W91tL0lx/xS4rw45UjSqznucuZcfjRw9xr13JB1V+VJcE/65t70yx+P2ca19GMwmrI4rcHclPY2Mo5ykaCzsG37zjMu/EICLGVqUwbp6rqOrMh9F+TO76f8rt/v35Prgw9kef/qHWb8dnnSKZdSSmnCVOI5J0+CN2X+8VxC2Jvl72W5XPZxZhuEpk2SbEN6ZFQNR73+4TJImtgnVyXBXp6zp2uSeM9cIzE3RLGWMI486dRy9MkPuhJPSbaXJcFelvml6Zt/ZXnX5IezR90C3tyoW3h2jn9akuv7U8r1QlOzBFYSb7OiEs2ygCTbmAdCp7PQXWzSWWw5U1qZ/pGF7yTBfjnze1ZWzsn8WIcmNHklnpJYn84Z7O0HDx68MWexd+f2G00IUAzHCzRpUB8f2RzdWr4sOlw6tHTwxb+k2S+kLEyp+YO8ebI7yfMTa9RXBvFrGcQPpDycTxk8XrbJ9levse0sryoO5c2lv6ZM842vXbG+Mn2z+iNbJZ6XUh5JuTeXcZbf+Mq2F+b2tB43qco0roAkO65Ujdt183pi1Nv/5qsv/Oz+cz94y/2p6rQaqzv20IcyiL+YFauTbLkk8OuUB3OG9KsM5MPH7LRyJnXMqplffDAt/GHKtD7ClU/P9c7PE9sHUufqJPtA3ux6OH3yy/Td6je65rFvGv/gk2Qb0EXl1KQa9fv7X376pQyc/0wzpHxq4N8ZsEeqzBnRU4nhrqx4LPMXj9wx3wsHYtELwWvTYkg/vJq6Sp0r0xN5RfFonvTuyX9OeGVlpXnzBSTZxvRRp9PdvJhsd+y4mkpwW96tZV/mP0rSfWzz5s1PlXUZ6Mktc/sfEN5lWZ5txHsX5dLEe1OeT3J9JP3y0y1btjx7bFCW2yEgybajn2qLMmexL2QQ35szpF8kof6mVLSSXCXY2tjHOXD53Gv5/Ouz6aMnxtnBNs0UkGSb2S/TjOqZJNjyv7veXKlUcl2R2ND5y+mHH2xoBCo/JQKS7ClhbO9BMpAPtjf62Y08/VLOZE0zILAR15pmgE0TCBAgMJ6AJDuek60IECCwLgFJdl1sdiJAgMB4ApLseE62IkCAwLoEJNl1sdmJAAEC4wlIsuM52YoAAQLrEpBk18VmJwIECIwnIMmO52QrAgQIrEtAkl0Xm50IECAwnoAkO56TrQgQILAuAUl2XWx2IkCAwHgCkux4TrYiQIDAugQk2XWx2YkAAQLjCUiy4znZigABAusSkGTXxWanNQRm4av5ZqENq7tmVr7Kcri6YW257ftk29JTDY8zv6ZwTX78L9//3V35OZuGR3x8ePl1iKW04XOJ//g7Wn4rbbop/XJlaUaL21Z+yHNHaUMbJ0m2jb3WvJg7GcBX5Iumr2heaONFVBJQEtJySTvG26kFW6Ut1+eHF1sQ6eyGSH92+3aqLZuFxDQLbZhqp6tsLIHZem00VpNtRIAAgekJSLLTs1YTAQJzKNDMywW787PUr422bdqxUI36o4m6pWy9OdfWTu91q/6El9bKvqflz87s2K8m27nsu33UqbYPJgr3nY3zVHdof3VGZ1i14U2jNsS4jk444S5taPOmtOCME7Zixu7M5Z1tadJkA3UDDJqZZPftOzzacd6Pl14d/X7USeqZcOpWg+rA4UF2XJhwz6oa5t8bSZSDqqTN8acSZC/7HuiV+YTTqOoOF0YHMntywj03YvO9qfQbKUsbUfkG1FkSbGlz06dnEuDXU3alTDxmmt64NeLrDgaD5/Km3rw8DtcgsGrmBPLue+PPGupCn+e212XquAQIECBAgAABAgQIECBAgAABAgQIECBAgAABAgQIECBAgAABAgQIECBAgAABAgQIECBAgAABAgQIECBAgAABAgQIECBAgAABAgQIECBAgAABAgQIECBAgAABAgQIECBAgAABAgQIECBAgAABAgQIECBAgAABAgQIECBAgAABAgQIECBAgAABAgQIECBAgAABAgQIECBAgAABAgQIECBAgAABAgQIECBAgAABAgQIECBAgAABAgQIECBAgAABAgQIECBAgAABAgQIECBAgAABAgQIECBAgAABAgQIECBAgAABAgQIECBAgAABAgQIECBAgAABAgQIECBAgAABAgQIECBAgAABAgQIECBAgAABAgQIECBAgAABAgQIECBAgAABAgQIECBAgAABAgQIECBAgAABAgQIECBAgAABAgQIECBAgAABAgQIECBAgAABAgQIECBAgAABAgQIECBAgAABAgQIECBAgAABAgQIECBAgAABAgQIECBAgAABAgQIECBAgAABAgQIECBAgAABAgQIECBAgAABAgQIECBAgAABAgQIECBAgAABAgQIECBAgAABAgQIECBAgAABAgQIECBAgAABAgQIECBAgAABAgQIECBAgAABAgQIECBAgAABAgQIECBAgAABAgQIECBAgAABAgQIECBAgAABAgQIECBAgAABAgQIECBAgAABAgQIECBAgAABAgQIECBAgAABAgQIECBAgAABAgQIECBAgAABAgQIECBAgAABAgQIECBAgAABAgQIECBAgAABAgQIECBAgAABAgQIECBAgAABAgQIECBAgAABAgQIECBAgAABAgQIECBAgAABAgQIECBAgAABAgQIECBAgAABAgQIECBAgAABAgQIECBAgAABAgQIECBAgAABAgQIECBAgAABAgQIECBAgAABAgQIECBAgAABAgQIECBAgAABAgQIECBAgAABAgQIECBAgAABAgQIECBAgAABAgQIECBAgAABAgQIECBAgAABAgQIECBAgAABAgQIECBAgAABAgQIECBAgAABAgQIECBAgAABAgQIECBAgAABAgQIECBAgAABAgQIECBAgAABAgQIECBAgAABAgQIECBAgAABAgQIECBAgAABAgQItEDgf7DcTusL+DmcAAAAAElFTkSuQmCC;" parent="Ln4_qjFezgvtbFoJ6TMg-47" vertex="1">
          <mxGeometry x="15" y="20" width="80" height="80" as="geometry" />
        </mxCell>
        <mxCell id="Ln4_qjFezgvtbFoJ6TMg-62" value="Organization" style="rounded=0;whiteSpace=wrap;html=1;verticalAlign=bottom;dashed=1;fillColor=none;" parent="iqprVtGjsiEywVP_pwhM-4" vertex="1">
          <mxGeometry x="5" y="203" width="120" height="128" as="geometry" />
        </mxCell>
        <mxCell id="Ln4_qjFezgvtbFoJ6TMg-63" value="Government Agency" style="rounded=0;whiteSpace=wrap;html=1;verticalAlign=bottom;dashed=1;fillColor=none;" parent="iqprVtGjsiEywVP_pwhM-4" vertex="1">
          <mxGeometry x="165" y="203" width="120" height="128" as="geometry" />
        </mxCell>
        <mxCell id="Ln4_qjFezgvtbFoJ6TMg-64" style="edgeStyle=none;rounded=0;orthogonalLoop=1;jettySize=auto;html=1;exitX=0;exitY=0.25;exitDx=0;exitDy=0;startArrow=oval;startFill=1;endArrow=block;endFill=1;strokeWidth=5;strokeColor=#4fb81c;entryX=1;entryY=0.5;entryDx=0;entryDy=0;" parent="iqprVtGjsiEywVP_pwhM-4" source="Ln4_qjFezgvtbFoJ6TMg-50" edge="1">
          <mxGeometry relative="1" as="geometry">
            <mxPoint x="170" y="259.5" as="sourcePoint" />
            <mxPoint x="110" y="259.5" as="targetPoint" />
          </mxGeometry>
        </mxCell>
        <mxCell id="Ln4_qjFezgvtbFoJ6TMg-65" style="edgeStyle=none;rounded=0;orthogonalLoop=1;jettySize=auto;html=1;exitX=1;exitY=0.75;exitDx=0;exitDy=0;startArrow=oval;startFill=1;endArrow=block;endFill=1;strokeWidth=5;strokeColor=#4fb81c;entryX=0;entryY=0.75;entryDx=0;entryDy=0;" parent="iqprVtGjsiEywVP_pwhM-4" source="Ln4_qjFezgvtbFoJ6TMg-45" target="Ln4_qjFezgvtbFoJ6TMg-50" edge="1">
          <mxGeometry relative="1" as="geometry">
            <mxPoint x="360" y="361" as="sourcePoint" />
            <mxPoint x="150" y="280" as="targetPoint" />
          </mxGeometry>
        </mxCell>
        <mxCell id="Ln4_qjFezgvtbFoJ6TMg-69" value="&lt;div style=&quot;font-size: 14px;&quot;&gt;&lt;div&gt;&lt;u&gt;Example&lt;/u&gt;: File goods and service tax returns from SAP S/4HANA to the Goods and Services Tax Network (GSTN) organization India in prescribed format and protected fashion.&lt;/div&gt;&lt;div&gt;&lt;br&gt;&lt;/div&gt;&lt;/div&gt;" style="rounded=0;whiteSpace=wrap;html=1;fontColor=#000000;fillColor=#D9EDCB;strokeColor=#D9EDCB;align=left;verticalAlign=top;fontSize=14;" parent="iqprVtGjsiEywVP_pwhM-4" vertex="1">
          <mxGeometry y="400" width="290" height="100" as="geometry" />
        </mxCell>
      </root>
    </mxGraphModel>
  </diagram>
</mxfile>
